<svg width="18" height="18" viewBox="0 0 18 18" xmlns="http://www.w3.org/2000/svg">
	<path d="M9.22825 3.76512C7.92065 3.41941 6.5399 3.46922 5.2606 3.90824C3.98131 4.34725 2.86092 5.15577 2.04113 6.23154C1.22134 7.3073 0.738965 8.60201 0.654999 9.95193C0.571034 11.3019 0.889252 12.6464 1.56941 13.8154C2.24957 14.9845 3.26113 15.9256 4.47616 16.5198C5.69119 17.1139 7.05512 17.3345 8.39549 17.1535C9.73585 16.9725 10.9924 16.3981 12.0063 15.5029C13.0203 14.6077 13.746 13.432 14.0917 12.1244C14.5552 10.371 14.3033 8.50519 13.3912 6.93752C12.4792 5.36985 10.9817 4.2287 9.22825 3.76512ZM6.12081 15.5186C5.10379 15.2497 4.18934 14.6853 3.4931 13.8967C2.79686 13.1081 2.3501 12.1308 2.20932 11.0883C2.06854 10.0458 2.24006 8.98493 2.70219 8.0399C3.16432 7.09488 3.8963 6.30811 4.80558 5.7791C5.71485 5.25009 6.76058 5.00258 7.81051 5.06789C8.86045 5.1332 9.86744 5.50838 10.7042 6.14599C11.5409 6.78361 12.1697 7.65502 12.5112 8.65003C12.8526 9.64503 12.8914 10.719 12.6225 11.736C12.2619 13.0998 11.3744 14.2645 10.1551 14.9738C8.93576 15.6832 7.4846 15.8792 6.12081 15.5186ZM16.0161 5.41039C15.3817 4.30173 14.5364 3.32798 13.5279 2.54407L12.5976 3.74423C13.45 4.40587 14.1673 5.2252 14.7103 6.15763C15.1057 6.84437 15.4051 7.58199 15.6004 8.34995L17.0802 7.95523C16.8445 7.06196 16.4864 6.20557 16.0161 5.41039ZM6.3153 2.05972L6.09385 0.578613C4.82971 0.761682 3.61364 1.19045 2.51423 1.84071C1.70667 2.31012 0.968694 2.89011 0.32173 3.56386L1.41305 4.63833C1.96273 4.05903 2.58967 3.55832 3.27617 3.15033C4.20911 2.60815 5.23758 2.25036 6.30559 2.09645L6.3153 2.05972ZM6.67943 10.9978L5.27013 8.62894L4.15556 9.27739L6.2036 12.7976L11.2285 9.87413L10.58 8.75956L6.67943 10.9978Z" />
</svg>
