<?xml version="1.0" encoding="UTF-8"?>
<svg xmlns="http://www.w3.org/2000/svg" xmlns:xlink="http://www.w3.org/1999/xlink" width="6912pt" height="1944pt" viewBox="0 0 6912 1944" version="1.1">
<g id="surface1">
<path style=" stroke:none;fill-rule:evenodd;fill:rgb(100%,94.898987%,0%);fill-opacity:1;" d="M 5519.238281 149.601563 C 5539.261719 171.230469 5569.578125 206.148438 5585.609375 235.320313 C 5612.089844 283.449219 5655.089844 396.308594 5638.550781 539.058594 C 5638.550781 539.058594 5573.671875 614.398438 5555.839844 676.820313 C 5543.191406 721.160156 5479.761719 789.699219 5449.980469 842.808594 C 5420.210938 895.929688 5388.78125 922.480469 5365.621094 944.0625 C 5342.460938 965.636719 5291.191406 1005.46875 5223.359375 1030.371094 C 5183.539063 1044.988281 5218.410156 1027.058594 5218.410156 1027.058594 C 5218.410156 1027.058594 5248.160156 1042 5271.328125 1040.328125 C 5294.488281 1038.679688 5349.078125 1028.710938 5355.691406 1023.730469 C 5355.691406 1023.730469 5294.488281 1126.640625 5145.621094 1207.96875 C 5145.621094 1207.96875 5236.609375 1209.628906 5324.269531 1144.898438 C 5411.941406 1080.160156 5332.539063 1143.25 5332.539063 1143.25 C 5332.539063 1143.25 5332.539063 1198.011719 5296.140625 1259.429688 C 5259.75 1320.828125 5215.101563 1360.679688 5205.171875 1368.980469 C 5195.25 1377.28125 5215.101563 1368.980469 5215.101563 1368.980469 C 5215.101563 1368.980469 5286.210938 1332.460938 5306.070313 1299.261719 C 5325.921875 1266.058594 5329.230469 1274.371094 5329.230469 1274.371094 C 5329.230469 1274.371094 5330.890625 1347.398438 5335.859375 1368.980469 C 5340.808594 1390.550781 5363.960938 1480.191406 5425.160156 1534.96875 C 5486.359375 1589.738281 5537.648438 1599.691406 5565.761719 1607.988281 C 5593.878906 1616.289063 5648.460938 1626.25 5678.261719 1632.890625 C 5708.019531 1639.53125 5732.839844 1659.449219 5744.421875 1672.71875 C 5755.988281 1686.011719 5825.46875 1764.019531 5838.699219 1775.640625 C 5851.929688 1787.261719 5883.359375 1812.160156 5909.820313 1812.160156 C 5936.28125 1812.160156 5972.691406 1803.859375 5997.488281 1770.660156 C 6022.289063 1737.460938 6066.949219 1642.851563 6075.21875 1621.269531 C 6083.5 1599.691406 6146.351563 1529.96875 6200.941406 1498.449219 C 6255.53125 1466.898438 6300.179688 1438.699219 6328.300781 1425.410156 C 6356.429688 1412.140625 6392.820313 1403.828125 6420.941406 1413.800781 C 6449.058594 1423.75 6508.589844 1435.371094 6513.570313 1483.5 L 6521.839844 1481.851563 C 6521.839844 1481.851563 6554.898438 1461.929688 6558.230469 1433.710938 C 6561.550781 1405.5 6559.878906 1387.238281 6559.878906 1387.238281 C 6559.878906 1387.238281 6592.96875 1413.800781 6601.21875 1422.089844 C 6608.359375 1429.230469 6632.671875 1349.058594 6579.730469 1309.21875 C 6579.730469 1309.21875 6631.929688 1296.128906 6659.128906 1350.71875 C 6662.429688 1357.359375 6680.628906 1319.179688 6672.359375 1304.238281 C 6664.101563 1289.300781 6637.621094 1216.269531 6511.910156 1219.589844 L 6508.589844 1171.449219 C 6508.589844 1171.449219 6556.570313 1164.820313 6594.621094 1183.078125 C 6632.671875 1201.328125 6660.78125 1227.878906 6664.101563 1237.851563 C 6667.410156 1247.808594 6678.980469 1193.03125 6644.238281 1159.839844 C 6609.511719 1126.640625 6564.851563 1081.828125 6508.589844 1085.148438 C 6508.589844 1085.148438 6583.03125 1068.550781 6626.039063 1090.121094 C 6669.050781 1111.699219 6688.910156 1124.980469 6697.171875 1139.921875 C 6705.441406 1154.859375 6695.511719 1066.890625 6660.78125 1032.039063 C 6626.039063 997.179688 6637.621094 1007.140625 6637.621094 1007.140625 C 6637.621094 1007.140625 6669.050781 978.910156 6675.679688 942.398438 C 6682.289063 905.890625 6682.289063 756.5 6617.769531 698.398438 C 6617.769531 698.398438 6503.640625 741.558594 6439.140625 728.289063 C 6374.621094 715 6368.011719 705.050781 6315.058594 678.488281 L 6306.800781 675.171875 L 6278.679688 686.789063 C 6278.679688 686.789063 6293.578125 655.25 6281.988281 602.128906 C 6281.988281 602.128906 6247.269531 690.109375 6192.671875 683.46875 C 6192.671875 683.46875 6232.390625 651.929688 6230.71875 588.859375 C 6230.71875 588.859375 6210.871094 603.800781 6184.390625 598.808594 C 6157.949219 593.839844 6148.011719 575.578125 6151.320313 552.339844 C 6154.628906 529.109375 6189.359375 409.601563 6212.511719 359.789063 C 6237.949219 305.109375 6308.449219 203.769531 6328.300781 188.839844 C 6348.160156 173.890625 6315.058594 177.21875 6293.578125 192.160156 C 6272.058594 207.101563 6146.351563 285.109375 6058.679688 431.171875 C 6058.679688 431.171875 6058.679688 339.878906 6030.558594 324.941406 C 6002.441406 310.011719 5974.328125 298.390625 5962.761719 298.390625 C 5951.179688 298.390625 5886.660156 314.980469 5858.550781 339.878906 C 5830.421875 364.78125 5769.230469 402.960938 5734.488281 439.46875 C 5699.761719 475.980469 5717.929688 454.410156 5717.929688 454.410156 C 5717.929688 454.410156 5739.441406 333.238281 5719.601563 298.390625 C 5699.761719 263.539063 5671.628906 208.75 5643.5 183.859375 C 5625.371094 167.808594 5605.199219 142.128906 5573.21875 125.890625 C 5677.261719 84.148438 5790.789063 61.171875 5909.679688 61.171875 C 6069.609375 61.171875 6219.878906 102.710938 6350.359375 175.609375 C 6372.851563 169.261719 6376.460938 155.609375 6407.679688 210.488281 C 6654.148438 373.230469 6816.851563 653.308594 6816.851563 971.5 C 6816.851563 1474.261719 6410.691406 1881.828125 5909.679688 1881.828125 C 5408.640625 1881.828125 5002.480469 1474.261719 5002.480469 971.5 C 5002.480469 609.019531 5213.640625 296.039063 5519.238281 149.601563 Z M 6912 1944 L 0 1944 L 0 0 L 6912 0 L 6912 1944 "/>
<path style=" stroke:none;fill-rule:evenodd;fill:rgb(92.89856%,10.998535%,14.099121%);fill-opacity:1;" d="M 929.535156 81.558594 L 769.457031 373.339844 C 756.164063 396.410156 736.570313 397.941406 710.675781 377.949219 L 572.027344 294.589844 L 668.074219 727.648438 C 696.921875 847.648438 602.933594 790.03125 598.707031 769.328125 L 408.972656 570.21875 L 354.476563 694.679688 C 337.625 714.289063 317.621094 718.53125 294.472656 707.398438 L 110.160156 670.328125 L 181.890625 883.960938 C 192.125 911.921875 189.765625 933.730469 174.804688 949.390625 L 97.125 993.378906 L 470.644531 1306 C 502.953125 1327.640625 510.070313 1355.429688 491.984375 1389.371094 L 452.273438 1511.519531 L 831.042969 1438.570313 C 915.203125 1432.699219 897.789063 1461.429688 892.183594 1504 L 881.511719 1863.519531 L 966.886719 1865.820313 L 956.828125 1498.269531 C 954.347656 1443.199219 982.570313 1427.339844 1020.25 1436.859375 L 1398.488281 1507.5 L 1359.390625 1390.558594 C 1340.71875 1364.679688 1347.25 1335.730469 1378.980469 1303.699219 L 1752.410156 993.976563 L 1690.21875 962.714844 C 1674.441406 953.574219 1668.109375 929.058594 1671.238281 889.171875 L 1735.878906 670.328125 L 1559.179688 712.019531 C 1527.011719 724.089844 1504.300781 714.640625 1491.039063 683.660156 L 1440.039063 566.210938 L 1259.75 766.429688 C 1214.378906 814.039063 1171.371094 815.519531 1180.328125 722.441406 L 1276.371094 303.898438 L 1124.078125 384.359375 C 1105.46875 391.050781 1082.148438 388.519531 1068.269531 362.921875 L 929.535156 81.558594 "/>
<path style=" stroke:none;fill-rule:evenodd;fill:rgb(0.39978%,0%,0%);fill-opacity:1;" d="M 2381.738281 855.75 C 2299.960938 897.390625 2207.390625 918.71875 2112.140625 918.71875 C 1865.011719 918.71875 1777.839844 782.621094 1777.839844 512.449219 C 1777.839844 245.320313 1895.558594 156.960938 2112.140625 156.960938 C 2201.101563 156.960938 2299.960938 180.320313 2374.550781 206.730469 L 2374.550781 438.300781 C 2326.019531 426.109375 2237.050781 409.859375 2164.261719 409.859375 C 2069.898438 409.859375 2037.550781 449.46875 2037.550781 576.441406 C 2037.550781 681.050781 2058.21875 728.789063 2117.53125 728.789063 C 2129.210938 728.789063 2145.390625 726.761719 2153.480469 724.730469 L 2153.480469 543.941406 L 2381.738281 543.941406 L 2381.738281 855.75 "/>
<path style=" stroke:none;fill-rule:evenodd;fill:rgb(0.39978%,0%,0%);fill-opacity:1;" d="M 2508.441406 175.238281 L 2755.570313 175.238281 L 2755.570313 900.441406 L 2508.441406 900.441406 L 2508.441406 175.238281 "/>
<path style=" stroke:none;fill-rule:evenodd;fill:rgb(0.39978%,0%,0%);fill-opacity:1;" d="M 3208.480469 295.089844 L 3206.691406 295.089844 L 3148.269531 605.890625 L 3266.898438 605.890625 Z M 3300.148438 788.710938 L 3115.019531 788.710938 L 3094.351563 900.441406 L 2847.21875 900.441406 L 3026.949219 175.238281 L 3396.300781 175.238281 L 3571.539063 900.441406 L 3320.808594 900.441406 L 3300.148438 788.710938 "/>
<path style=" stroke:none;fill-rule:evenodd;fill:rgb(0.39978%,0%,0%);fill-opacity:1;" d="M 3638.941406 175.238281 L 3919.320313 175.238281 L 4063.109375 576.441406 L 4064.910156 576.441406 L 4048.730469 175.238281 L 4278.789063 175.238281 L 4278.789063 900.441406 L 4022.671875 900.441406 L 3854.621094 456.589844 L 3852.820313 456.589844 L 3869 900.441406 L 3638.941406 900.441406 L 3638.941406 175.238281 "/>
<path style=" stroke:none;fill-rule:evenodd;fill:rgb(0.39978%,0%,0%);fill-opacity:1;" d="M 4527.710938 414.941406 L 4358.769531 414.941406 L 4358.769531 175.238281 L 4943.789063 175.238281 L 4943.789063 414.941406 L 4774.851563 414.941406 L 4774.851563 900.441406 L 4527.710938 900.441406 L 4527.710938 414.941406 "/>
<path style=" stroke:none;fill-rule:evenodd;fill:rgb(0.39978%,0%,0%);fill-opacity:1;" d="M 1962.429688 1268.570313 L 1789.480469 1268.570313 L 1789.480469 1028.859375 L 2388.359375 1028.859375 L 2388.359375 1268.570313 L 2215.410156 1268.570313 L 2215.410156 1754.058594 L 1962.429688 1754.058594 L 1962.429688 1268.570313 "/>
<path style=" stroke:none;fill-rule:evenodd;fill:rgb(0.39978%,0%,0%);fill-opacity:1;" d="M 2495.050781 1028.859375 L 2748.039063 1028.859375 L 2748.039063 1754.058594 L 2495.050781 1754.058594 L 2495.050781 1028.859375 "/>
<path style=" stroke:none;fill-rule:evenodd;fill:rgb(0.39978%,0%,0%);fill-opacity:1;" d="M 3488.558594 1709.371094 C 3404.851563 1751.019531 3310.101563 1772.351563 3212.589844 1772.351563 C 2959.609375 1772.351563 2870.378906 1636.238281 2870.378906 1366.070313 C 2870.378906 1098.941406 2990.878906 1010.578125 3212.589844 1010.578125 C 3303.660156 1010.578125 3404.851563 1033.941406 3481.199219 1060.351563 L 3481.199219 1291.921875 C 3431.53125 1279.738281 3340.460938 1263.488281 3265.941406 1263.488281 C 3169.351563 1263.488281 3136.238281 1303.101563 3136.238281 1430.058594 C 3136.238281 1534.671875 3157.390625 1582.410156 3218.109375 1582.410156 C 3230.070313 1582.410156 3246.628906 1580.378906 3254.898438 1578.351563 L 3254.898438 1397.558594 L 3488.558594 1397.558594 L 3488.558594 1709.371094 "/>
<path style=" stroke:none;fill-rule:evenodd;fill:rgb(0.39978%,0%,0%);fill-opacity:1;" d="M 3593.429688 1028.859375 L 4129.738281 1028.859375 L 4129.738281 1240.121094 L 3846.410156 1240.121094 L 3846.410156 1317.320313 L 4129.738281 1317.320313 L 4129.738281 1486.941406 L 3846.410156 1486.941406 L 3846.410156 1564.128906 L 4129.738281 1564.128906 L 4129.738281 1754.058594 L 3593.429688 1754.058594 L 3593.429688 1028.859375 "/>
<path style=" stroke:none;fill-rule:evenodd;fill:rgb(0.39978%,0%,0%);fill-opacity:1;" d="M 4494.949219 1369.121094 L 4574.058594 1369.121094 C 4623.738281 1369.121094 4663.289063 1358.960938 4663.289063 1287.859375 C 4663.289063 1241.140625 4643.050781 1218.789063 4586.941406 1218.789063 L 4494.949219 1218.789063 Z M 4241.96875 1028.859375 L 4679.851563 1028.859375 C 4808.640625 1028.859375 4916.269531 1059.328125 4916.269531 1238.089844 C 4916.269531 1375.210938 4857.398438 1443.261719 4730.449219 1446.308594 L 4941.109375 1754.058594 L 4648.570313 1754.058594 L 4497.710938 1500.140625 L 4494.949219 1500.140625 L 4494.949219 1754.058594 L 4241.96875 1754.058594 L 4241.96875 1028.859375 "/>
<path style=" stroke:none;fill-rule:evenodd;fill:rgb(100%,100%,100%);fill-opacity:1;" d="M 5420.289063 237.921875 C 5420.289063 237.921875 5433.011719 140.238281 5442.101563 138.460938 C 5451.210938 136.679688 5514.859375 189.96875 5522.140625 198.839844 C 5529.421875 207.730469 5420.289063 237.921875 5420.289063 237.921875 "/>
<path style=" stroke:none;fill-rule:evenodd;fill:rgb(92.89856%,10.998535%,14.099121%);fill-opacity:1;" d="M 5787.691406 1491.730469 C 5765.578125 1504.070313 5730.398438 1533.289063 5740.21875 1565.25 C 5750.03125 1597.21875 5759.851563 1632.390625 5782.769531 1657.960938 C 5805.691406 1683.539063 5825.339844 1702.710938 5844.96875 1709.109375 C 5864.609375 1715.5 5889.171875 1718.699219 5898.988281 1715.5 C 5908.808594 1712.300781 5935.011719 1691.53125 5936.648438 1675.539063 C 5938.28125 1659.570313 5944.828125 1608.421875 5953.011719 1563.660156 C 5961.179688 1518.910156 5969.378906 1472.550781 5969.378906 1461.371094 C 5969.378906 1450.179688 5936.648438 1443.78125 5915.351563 1453.378906 C 5894.078125 1462.960938 5875.53125 1480.171875 5859.710938 1475.75 C 5836.789063 1469.359375 5810.609375 1478.949219 5787.691406 1491.730469 "/>
<path style=" stroke:none;fill-rule:evenodd;fill:rgb(100%,100%,100%);fill-opacity:1;" d="M 5632.191406 1357.46875 C 5620.71875 1363.859375 5605.988281 1357.46875 5604.351563 1365.460938 C 5601.261719 1380.558594 5605.269531 1390.320313 5617.449219 1402.230469 C 5622.359375 1407.019531 5640.378906 1426.199219 5660.011719 1435.789063 C 5667.460938 1439.441406 5681.289063 1440.578125 5676.390625 1427.800781 C 5671.460938 1415.011719 5656.75 1391.039063 5658.371094 1375.050781 C 5660.011719 1359.070313 5655.109375 1344.691406 5632.191406 1357.46875 "/>
<path style=" stroke:none;fill-rule:evenodd;fill:rgb(100%,100%,100%);fill-opacity:1;" d="M 5789.339844 1346.28125 C 5775.429688 1353.070313 5812.230469 1403.820313 5828.601563 1413.421875 C 5844.96875 1423.011719 5859.710938 1423.011719 5859.710938 1410.21875 C 5859.710938 1397.429688 5849.878906 1397.429688 5846.609375 1383.039063 C 5843.339844 1368.648438 5843.339844 1360.660156 5846.609375 1349.488281 C 5849.878906 1338.289063 5846.609375 1335.089844 5833.519531 1335.089844 C 5820.421875 1335.089844 5799.148438 1341.488281 5789.339844 1346.28125 "/>
<path style=" stroke:none;fill-rule:evenodd;fill:rgb(100%,100%,100%);fill-opacity:1;" d="M 5604.351563 753.289063 C 5579.921875 760.878906 5551.96875 785.261719 5520.871094 847.601563 C 5490.648438 908.171875 5486.488281 946.695313 5489.769531 994.644531 C 5493.039063 1042.589844 5504.5 1072.96875 5538.878906 1072.96875 C 5573.261719 1072.96875 5588.539063 1069.78125 5605.988281 1018.621094 C 5625.628906 961.074219 5660.011719 849.199219 5656.75 804.441406 C 5653.460938 759.691406 5640.378906 742.101563 5604.351563 753.289063 "/>
<path style=" stroke:none;fill-rule:evenodd;fill:rgb(100%,100%,100%);fill-opacity:1;" d="M 5874.441406 788.460938 C 5852.328125 840.261719 5835.160156 922.71875 5838.429688 953.085938 C 5841.710938 983.453125 5866.261719 1013.828125 5890.808594 1007.441406 C 5915.351563 1001.039063 5938.28125 989.847656 5957.921875 953.085938 C 5977.558594 916.320313 5998.960938 820.769531 6000.480469 764.480469 C 6002.121094 703.738281 5965.648438 680.75 5921.921875 710.140625 C 5893.25 729.390625 5882.628906 769.28125 5874.441406 788.460938 "/>
<path style=" stroke:none;fill-rule:evenodd;fill:rgb(13.699341%,12.199402%,12.5%);fill-opacity:1;" d="M 6473.839844 635.441406 L 6473.839844 635.320313 C 6454.949219 635.441406 6439.710938 621.058594 6439.710938 599.660156 C 6439.710938 578.261719 6454.949219 564 6473.839844 564 C 6492.238281 564 6507.859375 578.261719 6507.859375 599.660156 C 6507.859375 621.058594 6492.238281 635.441406 6473.839844 635.441406 Z M 6473.839844 553.171875 C 6448.53125 553.171875 6425.988281 570.261719 6425.988281 599.660156 C 6425.988281 629.050781 6448.53125 646.148438 6473.839844 646.148438 C 6499.03125 646.148438 6521.578125 629.050781 6521.578125 599.660156 C 6521.578125 570.261719 6499.03125 553.171875 6473.839844 553.171875 "/>
<path style=" stroke:none;fill-rule:evenodd;fill:rgb(0.39978%,0%,0%);fill-opacity:1;" d="M 5881.25 1833.199219 C 5497.75 1833.199219 5171.5 1593.851563 5050.578125 1259.789063 C 5109.691406 1251.949219 5185.039063 1247.671875 5267.449219 1253.160156 C 5257.21875 1269.308594 5244.351563 1286.851563 5228.128906 1305.441406 C 5191.328125 1315.210938 5156.710938 1330.308594 5124.851563 1352.03125 C 5119.101563 1355.941406 5097.171875 1379.019531 5129.238281 1357.609375 C 5156.171875 1339.640625 5185.78125 1326.601563 5217.199219 1317.558594 C 5202.800781 1333.039063 5186.128906 1349.191406 5166.769531 1365.828125 C 5166.769531 1365.828125 5215.78125 1372.589844 5280.46875 1304.871094 C 5285.378906 1304.261719 5290.28125 1303.71875 5295.25 1303.261719 C 5294.570313 1339.308594 5301.429688 1429.75 5377.851563 1507.039063 C 5475.820313 1606.121094 5665.320313 1621.339844 5683.398438 1627.75 C 5696.25 1632.308594 5724.039063 1660.988281 5734.730469 1671.019531 C 5755.078125 1690.101563 5783 1734.859375 5816.839844 1760.429688 C 5853 1787.769531 5867.671875 1793.980469 5896.851563 1791.75 C 5926 1789.511719 5966.699219 1773.449219 5995.980469 1727.96875 C 6021.640625 1688.121094 6019.308594 1671.019531 6044.960938 1623.199219 C 6070.621094 1575.371094 6084.789063 1554.75 6139.429688 1515.011719 C 6198.898438 1471.738281 6312.070313 1391.851563 6390.171875 1406.820313 C 6444.539063 1417.238281 6468.320313 1442.128906 6482.300781 1481.980469 C 6482.300781 1481.980469 6554.671875 1436.320313 6533.691406 1383.929688 C 6533.691406 1383.929688 6552.21875 1396.691406 6572.121094 1422.761719 C 6572.121094 1422.761719 6614.28125 1355.449219 6561.421875 1301.808594 C 6561.421875 1301.808594 6612.03125 1298.640625 6628.089844 1354.441406 C 6628.089844 1354.441406 6666.398438 1319.25 6639.941406 1278.011719 C 6603.929688 1221.878906 6569.671875 1209.390625 6485.800781 1202.980469 C 6485.800781 1202.980469 6490.261719 1192.058594 6490.449219 1173.46875 C 6490.519531 1173.050781 6490.558594 1172.640625 6490.601563 1172.21875 C 6493.398438 1172.179688 6600.578125 1171.03125 6636.269531 1254.21875 C 6636.269531 1254.21875 6683.339844 1143.148438 6524.238281 1083.941406 C 6524.238281 1083.941406 6611.761719 1068.589844 6670.070313 1157.421875 C 6670.070313 1157.421875 6687.441406 1093.921875 6634.039063 1027.578125 C 6645.21875 1029.601563 6655.890625 1031.878906 6665.921875 1034.5 C 6694.921875 1042.050781 6675.710938 1029.851563 6666.820313 1027.488281 C 6654.769531 1024.269531 6641.351563 1021.460938 6626.828125 1019.109375 C 6616.859375 1008 6604.898438 996.878906 6590.339844 986.03125 C 6594.300781 971.613281 6597.25 957.789063 6599.320313 944.554688 C 6609.070313 944.402344 6618.070313 944.386719 6626.25 944.484375 C 6625.621094 947.914063 6625.019531 950.320313 6624.578125 951.289063 C 6619.929688 961.542969 6642.398438 964.753906 6647.921875 947.878906 C 6648.230469 946.910156 6648.480469 945.972656 6648.789063 945.019531 C 6671.75 945.882813 6683.230469 947.378906 6679.871094 947.324219 C 6703.640625 947.695313 6692.839844 938.519531 6677.71875 937.640625 C 6681.019531 937.828125 6671.359375 936.648438 6651.601563 935.828125 C 6662.070313 899.878906 6665.988281 866.839844 6664.378906 836.71875 C 6680.789063 836.558594 6695.851563 837.480469 6709.199219 839.601563 C 6738.839844 844.320313 6718.5 834.039063 6709.410156 832.539063 C 6696.128906 830.339844 6680.851563 829.371094 6663.878906 829.5 C 6658.488281 765.261719 6627.75 714.710938 6582.628906 677.96875 C 6552.820313 653.738281 6527.789063 685.941406 6542.960938 689.359375 C 6558.121094 692.78125 6565.109375 704.160156 6562.789063 705.308594 C 6472.730469 749.269531 6342.359375 716.691406 6302.699219 695.058594 C 6295.359375 691.039063 6296.328125 692.710938 6296.878906 689.359375 C 6298.519531 679.308594 6338.199219 655.121094 6387.851563 478.679688 C 6391.769531 464.75 6394.851563 450.941406 6397.238281 437.339844 C 6426.449219 428.011719 6454.558594 421.921875 6479.101563 421.929688 C 6496.828125 421.941406 6486.328125 417.929688 6479.320313 417.339844 C 6455.25 415.320313 6426.539063 420.648438 6398.679688 428.800781 C 6400.808594 415.148438 6402.230469 401.730469 6403.011719 388.671875 C 6438.621094 375.910156 6473.648438 366.601563 6500.53125 361.648438 C 6661.960938 517.539063 6762 733.949219 6762 973.160156 C 6762 1448.148438 6367.679688 1833.199219 5881.25 1833.199219 Z M 5034.359375 1210.121094 C 5054.28125 1208.648438 5076.710938 1207.839844 5101.019531 1207.820313 C 5096.570313 1210.011719 5092.058594 1212.191406 5087.449219 1214.359375 C 5087.449219 1214.359375 5106 1212.960938 5133.558594 1208.238281 C 5180.511719 1209.441406 5232.601563 1213.320313 5285.691406 1220.429688 C 5282.078125 1227.949219 5277.828125 1235.929688 5272.871094 1244.308594 C 5182.371094 1237.148438 5103.808594 1242.230469 5047.449219 1250.929688 C 5042.761719 1237.46875 5038.390625 1223.859375 5034.359375 1210.121094 Z M 5019.449219 1151.359375 C 5080.078125 1144.199219 5143.421875 1141.589844 5206.679688 1145.550781 C 5181.449219 1163.378906 5151.75 1181.828125 5117.011719 1199.78125 C 5084.300781 1200.339844 5055.761719 1202.148438 5032.671875 1204.210938 C 5027.710938 1186.820313 5023.300781 1169.179688 5019.449219 1151.359375 Z M 5000.488281 973.160156 C 5000.488281 700.21875 5130.71875 456.980469 5333.800781 299.429688 C 5361.070313 305.320313 5391.28125 311.738281 5419.5 317.53125 C 5421.269531 338.789063 5423.761719 358.75 5426.921875 377.320313 C 5379.699219 389.761719 5321.210938 405.121094 5267.351563 419.179688 C 5262.011719 420.570313 5260.078125 428.050781 5269.960938 426.011719 C 5272.699219 425.441406 5356.878906 405.589844 5428.558594 386.359375 C 5434.039063 416.050781 5441.070313 442.328125 5448.980469 465.410156 C 5374.621094 523.808594 5314.789063 551.78125 5312.839844 552.421875 C 5310.199219 553.269531 5301.46875 558.390625 5313.699219 554.980469 C 5359.441406 542.21875 5410.558594 507.808594 5452.21875 474.601563 C 5489.558594 576.789063 5542.878906 613.058594 5542.878906 613.058594 C 5542.878906 613.058594 5496.539063 558.058594 5463.179688 465.691406 C 5504.75 431.46875 5531.539063 403.769531 5532.808594 402.519531 C 5549.578125 386.148438 5544.441406 379.898438 5527.921875 396.550781 C 5504.328125 420.339844 5482.539063 438.320313 5460 456.601563 C 5452.320313 434.128906 5445.480469 409.570313 5440.25 383.191406 C 5478.238281 372.828125 5511.03125 362.980469 5523.628906 356.820313 C 5528.890625 354.261719 5524.5 351.699219 5521.019531 352.550781 C 5519.300781 352.96875 5485.769531 361.828125 5438.558594 374.261719 C 5435.410156 356.921875 5433.050781 338.78125 5431.558594 319.980469 C 5458.558594 325.449219 5482.941406 330.128906 5500.03125 332.910156 C 5505.25 333.761719 5504.398438 328.640625 5500.898438 327.789063 C 5499.640625 327.46875 5469.78125 321 5430.988281 312.589844 C 5430.089844 298.941406 5429.761719 284.890625 5429.929688 270.539063 C 5466.730469 290.769531 5501.601563 309.761719 5510.53125 314.121094 C 5514.011719 315.828125 5515.769531 314.121094 5512.25 310.699219 C 5510.339844 308.808594 5472.179688 284.820313 5430.121094 260.390625 C 5430.28125 254.710938 5430.550781 248.988281 5430.929688 243.21875 C 5431.339844 236.519531 5431.621094 228.109375 5432.21875 219.390625 C 5479.921875 257.910156 5508.570313 283.808594 5510.53125 285.078125 C 5513.140625 286.789063 5516.628906 283.371094 5511.390625 277.390625 C 5490.539063 253.628906 5459.648438 228.480469 5433.160156 208.730469 C 5435.699219 185.410156 5442.050781 163.910156 5461.53125 170.628906 C 5490.449219 180.601563 5547.238281 229.558594 5584.859375 334.621094 C 5619.628906 431.710938 5611.058594 528.011719 5608.859375 545.429688 C 5551.609375 613.429688 5497.300781 711.570313 5489.519531 853.921875 C 5489.519531 853.921875 5469.261719 1001.988281 5488.058594 1102.191406 C 5473.671875 1081.859375 5463.320313 1071.300781 5432.160156 1072.578125 C 5398.03125 1073.988281 5362.789063 1107.300781 5336.898438 1152.960938 C 5331.210938 1151.671875 5325.539063 1150.46875 5319.878906 1149.328125 C 5321.378906 1139.828125 5322.320313 1130.199219 5322.460938 1120.410156 C 5322.460938 1120.410156 5308.78125 1130.578125 5286.53125 1143.429688 C 5268.859375 1140.730469 5251.449219 1138.71875 5234.410156 1137.308594 C 5274.648438 1105.878906 5320.660156 1062.871094 5350.449219 1012.789063 C 5350.449219 1012.789063 5269.960938 1047.800781 5221.871094 1028.160156 C 5221.871094 1028.160156 5376.101563 990.574219 5472.339844 787.300781 C 5475.179688 781.269531 5471.449219 775.710938 5464.148438 785.019531 C 5432.089844 826.019531 5362.109375 986.589844 5186.578125 1026.460938 C 5186.578125 1026.460938 5227.421875 1062.328125 5327.121094 1029.871094 C 5327.121094 1029.871094 5297.070313 1078.621094 5219.558594 1136.230469 C 5140.660156 1131.179688 5070.320313 1138.230469 5018.128906 1145.191406 C 5006.570313 1089.601563 5000.488281 1032.078125 5000.488281 973.160156 Z M 5398.941406 253.46875 C 5404.808594 256.699219 5410.78125 260 5416.800781 263.320313 C 5417.101563 279.53125 5417.800781 295.089844 5418.890625 309.96875 C 5394.261719 304.648438 5367.058594 298.808594 5341.730469 293.359375 C 5360.21875 279.351563 5379.289063 266.039063 5398.941406 253.46875 Z M 5416.679688 242.410156 C 5416.679688 245.828125 5416.628906 249.261719 5416.679688 252.640625 C 5413.75 250.980469 5410.859375 249.371094 5407.949219 247.78125 C 5410.839844 245.980469 5413.75 244.191406 5416.679688 242.410156 Z M 5507.898438 165.511719 C 5539.601563 146.460938 5605.871094 203.929688 5610.238281 210.769531 C 5610.238281 210.769531 5562.230469 197.25 5528.890625 195.398438 C 5520.269531 194.910156 5496.53125 172.328125 5507.898438 165.511719 Z M 5881.25 113.128906 C 6022.710938 113.128906 6156.339844 145.71875 6274.789063 203.578125 C 6252.238281 215.238281 6225.898438 233.851563 6192.339844 258.410156 C 6109.539063 319.011719 6053.128906 409.199219 6046.128906 416.039063 C 6041.339844 420.699219 6039.050781 420.039063 6037.859375 416.988281 C 6037.398438 409.371094 6036.390625 402.441406 6034.949219 396.109375 C 6015.738281 261.101563 5922.21875 232.570313 5914.351563 229.28125 C 5906.171875 225.859375 5895.679688 229.28125 5907.359375 234.96875 C 5967.078125 264.128906 5988.96875 311.269531 5993.640625 322.648438 C 5997.078125 331 5993.589844 335.660156 5988.28125 336.21875 C 5981.121094 332.648438 5974.769531 330.398438 5970.621094 328.640625 C 5967.660156 327.390625 5964.648438 326.339844 5961.609375 325.410156 C 5961.601563 324.929688 5961.421875 324.398438 5960.988281 323.789063 C 5906.46875 249.261719 5836.929688 265.601563 5829.199219 266.851563 C 5824.460938 267.628906 5817.550781 270.269531 5826.871094 271.410156 C 5839.648438 272.96875 5869.648438 274.230469 5902.308594 292.441406 C 5934.960938 310.671875 5925.988281 321.519531 5925.988281 321.519531 C 5926.070313 321.621094 5926.160156 321.710938 5926.238281 321.800781 C 5912.828125 322.761719 5898.921875 326.039063 5884.558594 331.28125 C 5812.921875 309.910156 5771.910156 337.519531 5766.21875 339.738281 C 5760.378906 342.011719 5762.328125 345.050781 5769.71875 342.5 C 5784.460938 337.398438 5799.289063 336.429688 5820.300781 335.609375 C 5833.921875 335.058594 5851.058594 338.121094 5854.859375 344.300781 C 5854.878906 344.328125 5854.929688 344.371094 5854.949219 344.390625 C 5841.5 351.308594 5827.75 359.558594 5813.75 368.859375 C 5777.5 373.851563 5759.691406 385.691406 5744.058594 394.398438 C 5739.53125 396.929688 5739.671875 399.558594 5747.570313 396.679688 C 5758.738281 392.609375 5776.21875 387.371094 5784.488281 389.328125 C 5765.660156 403.300781 5745.898438 419.289063 5726.558594 435.398438 C 5722.308594 438.960938 5717.589844 442.789063 5712.550781 446.910156 C 5739.300781 299.859375 5645.210938 210.671875 5576.050781 166.230469 C 5671.140625 131.921875 5773.941406 113.128906 5881.25 113.128906 Z M 6150.289063 368.160156 C 6187.359375 355.019531 6183.089844 367.960938 6177.910156 378.460938 C 6172.628906 389.160156 6159.261719 416.039063 6159.261719 416.039063 C 6159.261719 416.039063 6149.320313 416.210938 6142.921875 416.039063 C 6109.121094 415.191406 6079.421875 427.160156 6067.179688 432.46875 C 6056.679688 437.019531 6052.519531 436.78125 6057.171875 432.21875 C 6097.46875 392.871094 6110.640625 382.191406 6150.289063 368.160156 Z M 6229.230469 255.46875 C 6239.730469 249.769531 6242.050781 248.628906 6254.890625 242.941406 C 6286.71875 228.820313 6256.050781 262.289063 6247.890625 270.269531 C 6239.730469 278.238281 6228.070313 275.960938 6218.738281 275.960938 C 6194.21875 275.960938 6221.871094 259.460938 6229.230469 255.46875 Z M 6209.410156 298.75 C 6229.140625 297.058594 6213.421875 314.78125 6210.578125 321.519531 C 6205.628906 333.191406 6202.78125 340.050781 6193.53125 341.96875 C 6173.46875 346.140625 6156.75 345.730469 6147.589844 347.710938 C 6137.101563 349.988281 6112.238281 353.769531 6126.589844 339.738281 C 6155.179688 311.828125 6182.578125 301.019531 6209.410156 298.75 Z M 5631.230469 405.5 C 5644.929688 414.238281 5687.910156 462.910156 5674.949219 480.671875 C 5654.699219 508.488281 5623.421875 539.75 5625.089844 525.941406 C 5637.371094 425.140625 5608.519531 391.039063 5631.230469 405.5 Z M 5590.128906 289.339844 C 5583.109375 277.390625 5565.628906 243.21875 5559.5 232.96875 C 5553.378906 222.730469 5562.128906 217.601563 5578.730469 223.578125 C 5595.371094 229.558594 5621.589844 234.679688 5654.828125 273.121094 C 5688.089844 311.550781 5680.199219 321.808594 5667.960938 314.121094 C 5655.71875 306.421875 5590.128906 289.339844 5590.128906 289.339844 Z M 5665.078125 350.269531 C 5678.96875 363.421875 5693.03125 397.371094 5693.339844 423.441406 C 5693.449219 432.160156 5671.199219 403.75 5656.941406 394.070313 C 5643.230469 384.78125 5628.230469 378.390625 5618.96875 365.371094 C 5612.140625 355.710938 5601.480469 319.25 5601.480469 319.25 C 5601.480469 319.25 5637.351563 324 5665.078125 350.269531 Z M 5558.628906 1040.121094 C 5551.640625 1044.671875 5544.628906 1043.539063 5538.800781 1041.25 C 5538.800781 1041.25 5575.339844 1001.53125 5555.128906 984.316406 C 5533.300781 965.71875 5514.179688 977.660156 5507.308594 987.734375 C 5504.988281 991.152344 5496.808594 986.589844 5496.808594 980.902344 C 5496.808594 900.890625 5560.949219 746.300781 5628.601563 757.691406 C 5696.25 769.078125 5592.910156 1019.828125 5574.949219 1056.070313 C 5572.601563 1060.808594 5567.230469 1059.160156 5569.128906 1048.089844 C 5570.300781 1041.25 5565.628906 1035.558594 5558.628906 1040.121094 Z M 5896.851563 930.789063 C 5884.011719 915.988281 5863.03125 925.089844 5858.351563 929.648438 C 5853.699219 934.210938 5850.640625 927.449219 5851.351563 922.820313 C 5874.671875 774.769531 5915.5 695.058594 5965.648438 704.160156 C 6015.800781 713.269531 5981.460938 849.558594 5970.320313 902.320313 C 5962.148438 941.039063 5941.160156 972.925781 5924.828125 990.011719 C 5920.859375 994.171875 5914.351563 990.011719 5912 983.175781 C 5909.679688 976.34375 5903.828125 974.066406 5899.179688 982.03125 C 5894.511719 990.011719 5877 985.460938 5877 985.460938 C 5900.339844 961.542969 5909.679688 945.601563 5896.851563 930.789063 Z M 6422.191406 874.878906 C 6384.21875 849.589844 6336.328125 856.558594 6329.53125 859.039063 C 6320.191406 862.460938 6315.53125 864.738281 6317.871094 861.320313 C 6349.820313 814.511719 6406.5 794.128906 6413.5 790.710938 C 6420.5 787.300781 6421.191406 783.859375 6419.339844 780.75 C 6406.710938 759.699219 6387.238281 756.140625 6351.980469 749.429688 C 6294.269531 738.460938 6216.039063 780.378906 6197.730469 792.988281 C 6177.910156 806.660156 6200.859375 800.359375 6214.070313 792.988281 C 6292.769531 749.101563 6354.378906 754.648438 6397.171875 775.050781 C 6404.210938 778.410156 6404.019531 781.570313 6398.320313 784.179688 C 6332.730469 814.128906 6304.960938 856.058594 6296.878906 868.148438 C 6292.371094 874.890625 6301.550781 880.691406 6313.199219 874.988281 C 6338.289063 862.738281 6364.511719 865.878906 6390.171875 874.988281 C 6395.148438 876.761719 6399.601563 878.691406 6403.640625 880.730469 C 6384.648438 886.859375 6365.339844 893.519531 6345.851563 900.671875 C 6259.429688 871.609375 6222.578125 867.539063 6167.761719 872.96875 C 6192.730469 857.058594 6218.101563 842.558594 6243.761719 829.890625 C 6328.660156 787.941406 6248.378906 822.210938 6239.359375 826.46875 C 6211.128906 839.851563 6181.820313 855.75 6152.019531 874.121094 C 6037.261719 888.050781 5981.980469 941.039063 5981.980469 941.039063 C 5988.96875 925.660156 5999.480469 903.460938 6006.46875 833.421875 C 6013.460938 763.390625 6015.230469 696.761719 5960.988281 691.628906 C 5896.359375 685.519531 5861.28125 799.261719 5842.019531 860.761719 C 5822.78125 922.25 5814.039063 1005.949219 5817.550781 1118.699219 C 5817.550781 1118.699219 5878.660156 1045.140625 5927.738281 999.121094 C 5963.550781 965.566406 6031 918.28125 6118.589844 895.671875 C 6024.441406 958.90625 5927.359375 1046.511719 5844.019531 1158.46875 C 5834.609375 1151.910156 5812.199219 1153.828125 5832.96875 1173.609375 C 5818.671875 1193.480469 5804.78125 1214.050781 5791.460938 1235.410156 C 5786.308594 1243.660156 5793.140625 1251.539063 5800.929688 1238.179688 C 5810.78125 1221.359375 5824.109375 1201.558594 5840.328125 1179.878906 C 5848.109375 1186.039063 5855.921875 1191.21875 5863.300781 1195.828125 C 5843.628906 1216.738281 5825.691406 1238.320313 5809.910156 1260.550781 C 5803.378906 1269.691406 5810.839844 1279.839844 5820.898438 1265.25 C 5835.730469 1243.820313 5853.308594 1222.648438 5873.121094 1201.878906 C 5876.609375 1204.03125 5879.929688 1206.089844 5882.988281 1208.128906 C 5866.808594 1223.859375 5851.21875 1239.921875 5836.300781 1255.960938 C 5829.660156 1263.101563 5833.871094 1273.03125 5844.359375 1261.570313 C 5858.101563 1246.558594 5873.851563 1230.449219 5891.121094 1214.019531 C 5893.949219 1216.328125 5896.308594 1218.699219 5898.25 1221.191406 C 5877.609375 1240.179688 5858.261719 1260.628906 5840.519531 1282.710938 C 5833.46875 1291.46875 5839.929688 1302.359375 5850.980469 1288.46875 C 5866.789063 1268.589844 5884.25 1249.949219 5903.03125 1232.441406 C 5903.121094 1233.238281 5903.25 1234.019531 5903.25 1234.851563 C 5903.25 1272.441406 5882.308594 1319.640625 5812.28125 1335.648438 C 5730.058594 1354.441406 5699.390625 1287.589844 5684.761719 1249.179688 C 5678.449219 1232.589844 5674.269531 1235.378906 5679.339844 1250.230469 C 5679.339844 1250.230469 5698.578125 1304.898438 5661.851563 1339.050781 C 5650.519531 1349.589844 5576.25 1382.460938 5528.660156 1323.53125 C 5543.378906 1326.859375 5557.949219 1330.460938 5572.25 1334.25 C 5587.449219 1338.300781 5585.460938 1327.738281 5575.878906 1325.261719 C 5557.25 1320.460938 5538.730469 1316.078125 5520.371094 1312.128906 C 5517.691406 1308.230469 5515.070313 1304.320313 5512.480469 1300.390625 C 5523 1303.949219 5533.5 1307.660156 5543.929688 1311.679688 C 5558.578125 1317.320313 5558.511719 1306.890625 5549.238281 1303.53125 C 5534.480469 1298.171875 5519.78125 1293.25 5505.140625 1288.699219 C 5500.96875 1281.789063 5497.109375 1274.789063 5493.710938 1267.628906 C 5527.980469 1279.539063 5559.921875 1293.441406 5588.058594 1309.570313 C 5601.640625 1317.351563 5602.960938 1306.53125 5594.21875 1302.011719 C 5559.398438 1284 5524.078125 1269.011719 5488.878906 1256.558594 C 5483.578125 1243.019531 5480.179688 1228.859375 5479.691406 1213.738281 C 5518.050781 1232.710938 5554.390625 1256.039063 5587.78125 1284.398438 C 5599.660156 1294.480469 5602.390625 1283.738281 5594.78125 1277.570313 C 5557.289063 1247.140625 5518.679688 1222.878906 5479.800781 1203.578125 C 5481.039063 1181.230469 5488.789063 1156.730469 5506.128906 1128.949219 C 5545.710938 1065.601563 5665.730469 1076.988281 5697.699219 1163.960938 C 5697.699219 1163.960938 5717.648438 1089.78125 5791.289063 1036.699219 C 5791.289063 1036.699219 5745.660156 1006.390625 5605.511719 1060.101563 C 5613.429688 1038.828125 5712.511719 768.738281 5634.71875 746.300781 C 5577.058594 729.671875 5512.25 825.730469 5501.769531 866.730469 C 5501.769531 866.730469 5500.03125 781.320313 5535.890625 730.078125 C 5571.738281 678.820313 5625.96875 648.078125 5673.210938 655.769531 C 5720.441406 663.449219 5728.648438 748.558594 5696.820313 891.5 C 5688.089844 930.789063 5678.449219 981.1875 5678.449219 981.1875 C 5678.449219 981.1875 5676.199219 986.101563 5692.761719 994.570313 C 5703.738281 1000.171875 5709.058594 996.84375 5712.558594 983.175781 C 5716.058594 969.511719 5746.511719 845.808594 5811.710938 749.71875 C 5873.511719 658.609375 5926.070313 595.21875 5991.300781 598.25 C 6015.800781 599.390625 6047.480469 620.160156 6056.621094 745.160156 C 6057.789063 761.109375 6065.949219 771.359375 6070.621094 747.441406 C 6075.289063 723.53125 6085.78125 640.390625 6029.789063 597.109375 C 5973.808594 553.839844 5861.859375 588 5740.578125 807.800781 C 5740.578125 807.800781 5776.730469 512.839844 5545.789063 685.941406 C 5545.789063 685.941406 5558.5 648.980469 5597.101563 594.78125 C 5627.539063 575.390625 5674.640625 551.230469 5708.480469 564.089844 C 5750.480469 580.039063 5752.21875 606.089844 5752.21875 681.378906 C 5752.21875 701.890625 5767.378906 691.628906 5776.730469 677.96875 C 5786.050781 664.308594 5882.308594 521.480469 5954.71875 550.308594 C 5970.679688 556.660156 5972.601563 550.511719 5958.660156 543.589844 C 5905.761719 517.339844 5822.308594 565.011719 5770.878906 653.480469 C 5770.878906 653.480469 5775.640625 577.75 5730.648438 554.410156 C 5691.710938 534.210938 5653.199219 547.328125 5622.550781 561.488281 C 5635.808594 545.269531 5651.148438 528.058594 5668.839844 510.261719 C 5692.609375 499.628906 5732.421875 487.011719 5762.71875 503.730469 C 5783.558594 515.238281 5793.039063 532.210938 5786.050781 566.371094 C 5783.71875 577.761719 5797.710938 580.039063 5804.710938 570.921875 C 5811.710938 561.808594 5845.410156 501.03125 5911.710938 487.21875 C 5933.578125 482.671875 5954.28125 494.058594 5960.988281 502.589844 C 5971.21875 515.628906 5974.261719 510.511719 5967.121094 497.761719 C 5941.75 452.488281 5848.148438 474.691406 5803.539063 538.75 C 5803.539063 538.75 5797.238281 496.300781 5756.300781 485.800781 C 5743.96875 482.628906 5720.160156 479.75 5689.589844 490.171875 C 5702.070313 478.511719 5715.53125 466.679688 5730.058594 454.769531 C 5735.359375 450.429688 5740.441406 446.28125 5745.421875 442.21875 C 5756.699219 439.070313 5773.070313 437.859375 5781.769531 445.398438 C 5797.511719 459.070313 5798.570313 476.441406 5800.039063 493.480469 C 5800.488281 498.660156 5810.53125 501.171875 5814.039063 491.769531 C 5817.550781 482.378906 5838.289063 452.539063 5868.710938 438.46875 C 5901.949219 423.101563 5923.878906 418.648438 5956.601563 437.109375 C 5964.828125 441.75 5973.238281 443.589844 5966.238281 434.539063 C 5946.210938 408.660156 5902.519531 408.378906 5872.640625 420.878906 C 5848.148438 431.140625 5828.050781 445.648438 5810.53125 467 C 5810.53125 467 5804.960938 436.859375 5782.460938 430.789063 C 5771 427.691406 5766.589844 428.421875 5761.679688 429.058594 C 5866.929688 344.199219 5901.058594 326.5 5949.328125 335.199219 C 5993.640625 343.148438 6014.851563 381.988281 6018.128906 422.878906 C 6020.53125 452.75 6013.320313 476.371094 6002.859375 493.128906 C 5993.449219 508.179688 5996.539063 507.269531 5996.539063 507.269531 C 6000.460938 510.628906 6074.058594 431.679688 6137.269531 434.738281 C 6148.671875 435.300781 6155.140625 433.128906 6149.921875 446.789063 C 6144.738281 460.398438 6127.261719 505.199219 6118.429688 550.421875 C 6110.070313 593.269531 6125.429688 608.511719 6138.25 618.761719 C 6155.5 632.53125 6193.078125 613.058594 6193.078125 613.058594 C 6195.410156 676.839844 6144.089844 698.46875 6144.089844 698.46875 C 6223.390625 715.550781 6249.058594 639.25 6249.058594 639.25 C 6258.378906 672.269531 6231.570313 715.550781 6222.230469 723.53125 C 6212.898438 731.5 6223.390625 733.78125 6229.230469 728.078125 C 6235.050781 722.378906 6265.378906 697.328125 6275.871094 700.738281 C 6286.371094 704.160156 6271.230469 729.21875 6268.878906 732.628906 C 6266.539063 736.050781 6272.378906 740.609375 6274.730469 734.910156 C 6291.199219 694.648438 6298.039063 703.019531 6303.871094 705.308594 C 6326.820313 714.269531 6398.320313 742.878906 6420.5 762.25 C 6452.039063 789.808594 6467.5 826.089844 6474.730469 859.789063 C 6457.589844 864.328125 6440.039063 869.371094 6422.191406 874.878906 Z M 6476.429688 868.488281 C 6481.878906 899.480469 6480.710938 927.300781 6479.261719 942.839844 C 6461.480469 944.855469 6442.898438 947.347656 6423.609375 950.410156 C 6417.121094 944.140625 6410.289063 938.289063 6403.128906 932.871094 C 6423.199219 927.449219 6437.960938 923.671875 6443.828125 922.820313 C 6452.039063 921.609375 6458.839844 920.609375 6457.828125 918.269531 C 6451.039063 902.621094 6441.839844 890.820313 6431.480469 881.910156 C 6446.699219 877.078125 6461.699219 872.601563 6476.429688 868.488281 Z M 6514.398438 849.980469 C 6502.289063 786.609375 6477.699219 754.371094 6475.308594 749.71875 C 6471.808594 742.878906 6486.988281 737.191406 6493.96875 745.160156 C 6520.429688 775.308594 6536.191406 810.101563 6545.449219 843.320313 C 6535.320313 845.339844 6524.941406 847.550781 6514.398438 849.980469 Z M 6556.550781 966.828125 C 6544.921875 961.9375 6532.621094 958.246094 6519.871094 955.574219 C 6520.039063 953.183594 6520.121094 950.871094 6520.238281 948.523438 C 6533.371094 947.421875 6545.871094 946.589844 6557.691406 945.972656 C 6557.480469 954.824219 6557 961.988281 6556.550781 966.828125 Z M 6467.5 1011.558594 C 6458.039063 991.746094 6446.191406 974.429688 6432.398438 959.394531 C 6487.578125 957.679688 6542.910156 966.269531 6582.628906 996.84375 C 6590.921875 1003.238281 6598.308594 1009.660156 6604.980469 1016.011719 C 6565.148438 1011.140625 6518.398438 1009.371094 6467.5 1011.558594 Z M 6391.339844 1154.570313 C 6388.789063 1086.050781 6358.339844 1052.078125 6333.890625 1035.378906 C 6363.199219 1030.050781 6392.160156 1026.011719 6420.398438 1023.191406 C 6429.941406 1047.570313 6436.300781 1075.328125 6438.578125 1106.738281 C 6450.820313 1275.871094 6331.871094 1368.089844 6331.871094 1368.089844 C 6358.109375 1332.21875 6394.851563 1248.519531 6391.339844 1154.570313 Z M 6388.378906 966.847656 C 6399.480469 980.988281 6409.171875 996.945313 6417.019531 1014.960938 C 6386.019531 1017.78125 6353.941406 1022.03125 6321.328125 1027.871094 C 6317.339844 1025.800781 6313.761719 1024.210938 6310.859375 1023.039063 C 6293.378906 1015.921875 6294.109375 1024.210938 6298.898438 1032.109375 C 6165.558594 1058.871094 6025.820313 1112.601563 5917.300781 1204.339844 C 5913.519531 1203.050781 5909.789063 1201.621094 5906.070313 1200.070313 C 6058.820313 1060.269531 6239.800781 995.808594 6388.378906 966.847656 Z M 6359.589844 906.761719 C 6378.191406 899.820313 6396.609375 893.328125 6414.789063 887.320313 C 6429.46875 896.738281 6436.101563 911.429688 6430.980469 911.429688 C 6422.828125 911.429688 6402.828125 917.210938 6387.539063 922.050781 C 6378.609375 916.390625 6369.261719 911.351563 6359.589844 906.761719 Z M 5875.101563 1183.589844 C 5867 1178.28125 5859.128906 1172.171875 5851.46875 1165.261719 C 5917.300781 1080.519531 6023.019531 971.453125 6141.398438 890.460938 C 6153.808594 887.988281 6163.488281 886.601563 6176.601563 885.269531 C 6224.371094 880.390625 6277.25 887.71875 6320.320313 910.269531 C 6159.828125 972.199219 5990.300781 1066.769531 5875.101563 1183.589844 Z M 6332.511719 917.140625 C 6350.109375 927.839844 6366.371094 941.171875 6380.621094 957.289063 C 6358.089844 961.1875 6337.648438 966.28125 6319.410156 971.714844 C 6182.289063 1006.230469 6027.421875 1071.960938 5896.121094 1195.558594 C 5892.398438 1193.761719 5888.691406 1191.808594 5885.03125 1189.71875 C 5995.539063 1079.601563 6168.179688 981.75 6332.511719 917.140625 Z M 5807.039063 1492.800781 C 5836.769531 1474.011719 5866.511719 1484.25 5850.78125 1501.339844 C 5835.019531 1518.421875 5822.78125 1544.898438 5819.289063 1561.128906 C 5816.761719 1572.828125 5822.53125 1572.21875 5828.050781 1560.28125 C 5872.601563 1463.539063 5964.480469 1432.160156 5960.988281 1474.011719 C 5958.230469 1507.078125 5941.75 1573.089844 5938.25 1608.960938 C 5934.738281 1644.828125 5932.109375 1682.421875 5918.121094 1697.789063 C 5904.128906 1713.160156 5880.519531 1713.160156 5856.03125 1706.328125 C 5792.621094 1688.640625 5752.21875 1602.910156 5749.308594 1566.261719 C 5746.191406 1527.078125 5786.011719 1506.089844 5807.039063 1492.800781 Z M 5847.261719 1397.140625 C 5854.269531 1403.96875 5851.898438 1414.5 5843.78125 1410.800781 C 5811.058594 1395.960938 5790.660156 1351.519531 5796.550781 1349.308594 C 5824.289063 1338.890625 5847.230469 1334.109375 5836.769531 1361.269531 C 5833.089844 1370.859375 5840.289063 1390.300781 5847.261719 1397.140625 Z M 5653.089844 1395.441406 C 5675.269531 1430.621094 5665.320313 1431.300781 5665.320313 1431.300781 C 5623.351563 1417.648438 5595.140625 1362.960938 5616.359375 1364.679688 C 5637.371094 1366.390625 5649.601563 1349.308594 5651.351563 1361.269531 C 5653.089844 1373.21875 5639.101563 1373.21875 5653.089844 1395.441406 Z M 5391 1302.589844 C 5393.628906 1369.851563 5404.738281 1462.511719 5486.320313 1560.550781 C 5486.320313 1560.550781 5409.460938 1521.550781 5366.191406 1429.589844 C 5347.941406 1390.828125 5332.371094 1348.839844 5326.261719 1301.308594 C 5347.578125 1300.589844 5369.238281 1301.101563 5391 1302.589844 Z M 5390.03125 1268.558594 C 5390.238281 1276.140625 5390.398438 1284.25 5390.671875 1292.800781 C 5368.378906 1291.230469 5346.511719 1290.800781 5325.121094 1291.589844 C 5324.058594 1280.808594 5323.488281 1269.71875 5323.488281 1258.339844 C 5345.390625 1260.949219 5367.628906 1264.359375 5390.03125 1268.558594 Z M 5344.328125 1154.71875 C 5379.441406 1087.121094 5456.300781 1042.640625 5490.398438 1127.238281 C 5490.398438 1127.238281 5470.789063 1154.300781 5468.039063 1197.890625 C 5426.648438 1178.421875 5385.078125 1164.46875 5344.328125 1154.71875 Z M 5467.75 1208.019531 C 5467.75 1221.21875 5469.339844 1235.699219 5473.429688 1251.261719 C 5423.390625 1234.570313 5373.730469 1222.910156 5326.21875 1214.949219 C 5326.660156 1211.359375 5327.148438 1207.75 5327.710938 1204.109375 C 5329.769531 1190.71875 5333.941406 1177.308594 5339.628906 1164.480469 C 5383.808594 1174.671875 5426.851563 1188.941406 5467.75 1208.019531 Z M 5489.820313 1293.070313 C 5492.148438 1297.53125 5494.621094 1302.03125 5497.398438 1306.609375 C 5497.578125 1306.910156 5497.789063 1307.210938 5497.980469 1307.511719 C 5468.550781 1301.761719 5439.570313 1297.359375 5411.210938 1294.570313 C 5409.5 1287.140625 5407.851563 1279.53125 5406.261719 1271.738281 C 5434.03125 1277.429688 5461.96875 1284.5 5489.820313 1293.070313 Z M 5404.53125 1262.878906 C 5404.179688 1261.128906 5403.839844 1259.398438 5403.511719 1257.628906 C 5403.511719 1257.628906 5388.671875 1236.921875 5389.53125 1254.21875 C 5389.609375 1256.078125 5389.679688 1258.011719 5389.75 1259.960938 C 5367.25 1255.699219 5345.171875 1252.238281 5323.621094 1249.53125 C 5323.800781 1241.921875 5324.261719 1234.179688 5324.988281 1226.289063 C 5376.859375 1234.800781 5428.671875 1246.511719 5476.589844 1261.910156 C 5478.800781 1268.628906 5481.519531 1275.539063 5484.71875 1282.589844 C 5457.628906 1274.769531 5430.808594 1268.25 5404.53125 1262.878906 Z M 5301.550781 1211.109375 C 5308.589844 1194.871094 5314.328125 1177.691406 5318 1159.839844 C 5322.511719 1160.738281 5327.050781 1161.679688 5331.570313 1162.671875 C 5323.101563 1178.589844 5315.480469 1195.441406 5308.839844 1212.210938 C 5306.398438 1211.828125 5303.960938 1211.449219 5301.550781 1211.109375 Z M 5304.570313 1146.398438 C 5305.269531 1145.890625 5306 1145.398438 5306.710938 1144.890625 C 5306.710938 1144.890625 5306.75 1145.539063 5306.710938 1146.800781 C 5306 1146.671875 5305.269531 1146.53125 5304.570313 1146.398438 Z M 5151.878906 1193 C 5151.878906 1193 5182.921875 1175.96875 5222.171875 1146.660156 C 5238.53125 1147.96875 5254.878906 1149.699219 5271.160156 1151.949219 C 5239.601563 1168.671875 5196.761719 1187 5151.878906 1193 Z M 5291.328125 1154.980469 C 5296.179688 1155.78125 5301.011719 1156.628906 5305.839844 1157.519531 C 5304.378906 1168.589844 5300.550781 1186.5 5290.621094 1209.601563 C 5249.011719 1204.058594 5209.488281 1201.238281 5173.289063 1200.148438 C 5210.910156 1191.25 5254.730469 1177.101563 5291.328125 1154.980469 Z M 5284.289063 1245.269531 C 5288.609375 1237.769531 5292.738281 1229.988281 5296.601563 1221.941406 C 5299.269531 1222.328125 5301.960938 1222.710938 5304.648438 1223.121094 C 5301.699219 1231.011719 5298.988281 1238.808594 5296.539063 1246.449219 C 5292.441406 1246.039063 5288.351563 1245.640625 5284.289063 1245.269531 Z M 5296.210938 1287.238281 C 5296.210938 1287.238281 5295.921875 1289.5 5295.660156 1293.539063 C 5293.898438 1293.699219 5292.121094 1293.851563 5290.378906 1294.039063 C 5292.308594 1291.828125 5294.261719 1289.589844 5296.210938 1287.238281 Z M 5259.660156 1307.929688 C 5235.140625 1331.101563 5206.050781 1346.101563 5200 1349.308594 C 5200 1349.308594 5215.589844 1335.800781 5235.640625 1312.800781 C 5243.558594 1310.960938 5251.570313 1309.328125 5259.660156 1307.929688 Z M 5245.371094 1301.28125 C 5256.378906 1287.769531 5268.140625 1271.828125 5279.070313 1254.011719 C 5283.960938 1254.390625 5288.878906 1254.808594 5293.78125 1255.25 C 5293.429688 1256.429688 5293.050781 1257.621094 5292.710938 1258.78125 C 5288.621094 1272.671875 5280.441406 1285.390625 5270.578125 1296.648438 C 5262.078125 1297.949219 5253.671875 1299.46875 5245.371094 1301.28125 Z M 6307.371094 1193.859375 C 6298.609375 1139.191406 6263.621094 1111.859375 6256.640625 1105.03125 C 6249.648438 1098.199219 6243.878906 1099.199219 6249.648438 1110.160156 C 6284.730469 1176.929688 6272.628906 1242.898438 6260.128906 1310.019531 C 6252.21875 1352.519531 6229.410156 1415.378906 6218.648438 1443.769531 C 6214.378906 1446.300781 6210.050781 1448.910156 6205.578125 1451.679688 C 6236.171875 1347.601563 6217.449219 1270.640625 6198.699219 1244.679688 C 6189.121094 1231.449219 6190.378906 1237.210938 6191.921875 1245.101563 C 6210.21875 1339.558594 6167.800781 1447.238281 6147.609375 1491.238281 C 6130.011719 1504.269531 6111.351563 1518.949219 6091.609375 1535.519531 C 6080.351563 1544.949219 6064.960938 1563.421875 6056.121094 1575.730469 C 6071.25 1510.140625 6095.601563 1496.878906 6113.179688 1477.421875 C 6125.449219 1463.859375 6119.96875 1463.648438 6114.929688 1467.171875 C 6047.148438 1514.730469 6055.289063 1553.21875 6014.148438 1651.851563 C 6003.308594 1675.320313 5995.078125 1697.078125 5983.148438 1715.449219 C 5950.261719 1766.050781 5917.820313 1773.980469 5891.011719 1773.511719 C 5850.101563 1772.820313 5822.609375 1748.890625 5788.371094 1708.601563 C 5736.519531 1647.550781 5720.730469 1631.171875 5693.910156 1615.230469 C 5667.089844 1599.28125 5632.101563 1577.648438 5595.949219 1536.640625 C 5559.789063 1495.648438 5538.800781 1455.78125 5522.46875 1360.128906 C 5518.96875 1339.621094 5506.128906 1345.320313 5507.308594 1362.410156 C 5508.480469 1379.480469 5492.140625 1479.699219 5597.101563 1593.578125 C 5597.101563 1593.578125 5472.351563 1547.171875 5413.550781 1304.449219 C 5444.648438 1307.511719 5475.800781 1312.5 5506.390625 1318.75 C 5530.710938 1346.730469 5576.628906 1371.640625 5597.101563 1364.679688 C 5597.101563 1364.679688 5604.289063 1421.25 5658.339844 1441.550781 C 5681.089844 1450.089844 5691.578125 1456.929688 5700.328125 1489.390625 C 5709.058594 1521.851563 5757.488281 1704.238281 5864.78125 1721.699219 C 5917.261719 1730.25 5932.101563 1708.351563 5938.25 1690.960938 C 5955.730469 1641.410156 5957.488281 1526.96875 5990.730469 1436.429688 C 6022.859375 1348.878906 6093.378906 1223.25 6198.53125 1187 C 6200.699219 1192.808594 6201.859375 1199.261719 6201.238281 1206.390625 C 6199.441406 1226.820313 6219.910156 1222.050781 6222.230469 1204.109375 C 6226.628906 1170.210938 6180.238281 1144.890625 6170.898438 1142.621094 C 6161.578125 1140.328125 6162.988281 1147.359375 6170.898438 1154.011719 C 6173.808594 1156.410156 6185.660156 1164.449219 6193.699219 1177.25 C 6116.289063 1196.988281 6017.480469 1231.839844 5930.53125 1208.398438 C 6034.699219 1122.941406 6172.160156 1068.710938 6305.53125 1040.910156 C 6332.019531 1073.921875 6346.230469 1101.25 6347.609375 1175.078125 C 6349.359375 1269.019531 6291.640625 1369.808594 6291.640625 1369.808594 C 6302.128906 1342.480469 6316.109375 1248.519531 6307.371094 1193.859375 Z M 6566.398438 1394.949219 C 6566.398438 1394.949219 6549.960938 1372.660156 6514.941406 1357.851563 C 6514.941406 1357.851563 6541.339844 1427.320313 6490.480469 1454.648438 C 6490.480469 1454.648438 6463.980469 1387.019531 6373.550781 1389.351563 C 6418.460938 1347.03125 6461.210938 1289.878906 6481.109375 1219.648438 C 6508.460938 1218.78125 6556.601563 1221.371094 6588.441406 1246.238281 C 6635.089844 1282.691406 6640.488281 1307.558594 6630.429688 1327.101563 C 6630.429688 1327.101563 6604.589844 1272.441406 6527.789063 1288.378906 C 6527.789063 1288.378906 6593.53125 1340.859375 6566.398438 1394.949219 Z M 6487.148438 1075.308594 C 6483.441406 1054.601563 6478.378906 1036.410156 6471.039063 1019.378906 C 6522.980469 1016.789063 6571.320313 1018.570313 6613.28125 1024.320313 C 6660.75 1074.988281 6660.078125 1123.140625 6660.078125 1123.140625 C 6660.078125 1123.140625 6602.03125 1043.878906 6487.148438 1075.308594 Z M 6490.128906 1091.480469 C 6498.691406 1091.828125 6506.78125 1093.828125 6513.78125 1095.921875 C 6546.269531 1105.570313 6628.828125 1149.921875 6628.21875 1214.121094 C 6628.21875 1214.121094 6581.308594 1151.199219 6491.738281 1160.988281 C 6492.421875 1152.71875 6492.808594 1144.328125 6492.808594 1135.789063 C 6492.808594 1120.179688 6491.890625 1105.429688 6490.128906 1091.480469 Z M 6557.789063 936.46875 C 6546.101563 937.039063 6533.699219 937.828125 6520.71875 938.859375 C 6521.75 908.070313 6519.671875 881.199219 6515.851563 858.191406 C 6526.621094 855.589844 6537.160156 853.21875 6547.5 851.070313 C 6555.628906 883.53125 6557.75 913.988281 6557.789063 936.46875 Z M 6597.339844 834.660156 C 6584.589844 774.210938 6555.800781 740.621094 6552.289063 737.191406 C 6546.441406 731.5 6556.941406 724.671875 6566.269531 730.359375 C 6600.988281 751.539063 6617.730469 791.390625 6625.121094 831.511719 C 6616.179688 832.308594 6606.910156 833.371094 6597.339844 834.660156 Z M 6627.671875 935.171875 C 6619.5 935.050781 6610.5 935.03125 6600.660156 935.148438 C 6605.261719 899.511719 6603.609375 868.390625 6598.808594 842.03125 C 6608.269531 840.699219 6617.460938 839.621094 6626.359375 838.78125 C 6632.371094 877.03125 6630.308594 914.429688 6627.671875 935.171875 Z M 6348.199219 207.628906 C 6358.578125 211.171875 6372.648438 250.46875 6378.410156 303.089844 C 6325.320313 342.910156 6281.289063 397 6272.371094 409.75 C 6259.230469 428.539063 6276.949219 414.21875 6280.230469 410.609375 C 6311.148438 376.648438 6345.460938 341.558594 6379.46875 313.929688 C 6381.378906 336.621094 6381.710938 361.378906 6379.550781 386.570313 C 6336.191406 404.890625 6298.601563 427.578125 6277.378906 447.609375 C 6260.628906 463.421875 6272.679688 458.578125 6281.730469 451.25 C 6307.078125 430.769531 6342.058594 412.71875 6378.398438 398.050781 C 6376.859375 411.28125 6374.609375 424.558594 6371.519531 437.660156 C 6328.078125 453.179688 6291.75 472.269531 6286.28125 475.5 C 6266.378906 487.300781 6283.308594 483.980469 6293.078125 479.46875 C 6317.730469 468.058594 6343.628906 456.691406 6369.261719 447.089844 C 6319.089844 652.761719 6258.378906 688.230469 6258.378906 688.230469 C 6272.378906 650.640625 6257.21875 594.828125 6253.730469 589.140625 C 6250.230469 583.449219 6245.128906 583.53125 6244.398438 591.429688 C 6236.371094 677.738281 6181.410156 685.941406 6181.410156 685.941406 C 6221.070313 634.699219 6208.238281 569.78125 6204.730469 557.261719 C 6201.980469 547.359375 6196.570313 547.011719 6195.410156 557.261719 C 6194.238281 567.511719 6200.078125 589.140625 6190.738281 595.980469 C 6170.898438 610.5 6139.429688 608.511719 6133.601563 593.699219 C 6113.601563 542.929688 6194.378906 387.050781 6202.410156 369.351563 C 6229.230469 310.140625 6324.46875 199.558594 6348.199219 207.628906 Z M 6407.519531 283.519531 C 6404.128906 285.53125 6400.75 287.609375 6397.410156 289.789063 C 6396.378906 284.289063 6395.261719 278.988281 6394.039063 273.878906 C 6398.570313 277.050781 6403.058594 280.269531 6407.519531 283.519531 Z M 6492.75 354.210938 C 6463.308594 358.230469 6432.648438 366.488281 6403.578125 377.128906 C 6404.558594 348.808594 6402.699219 322.378906 6398.96875 298.921875 C 6404.089844 295.199219 6409.199219 291.71875 6414.25 288.449219 C 6441.71875 308.871094 6467.941406 330.828125 6492.75 354.210938 Z M 6538.101563 357.601563 C 6579.890625 358.488281 6561.558594 353.859375 6554.648438 352.988281 C 6547.398438 352.070313 6539.839844 351.628906 6532.121094 351.558594 C 6503.960938 323.460938 6473.929688 297.191406 6442.21875 272.921875 C 6447.800781 270.339844 6453.320313 268.101563 6458.738281 266.339844 C 6475.550781 260.878906 6463.789063 260.371094 6456.988281 262.070313 C 6450.261719 263.738281 6443.519531 266.039063 6436.75 268.789063 C 6418.078125 254.730469 6398.808594 241.339844 6379.019531 228.699219 C 6371.769531 213.089844 6363.800781 202.550781 6356.351563 198.53125 C 6341.851563 190.710938 6327.878906 188.140625 6312.878906 190.230469 C 6184.429688 122.570313 6037.429688 84.148438 5881.25 84.148438 C 5761.921875 84.148438 5647.96875 106.570313 5543.558594 147.328125 C 5522.789063 136.460938 5508.78125 131.328125 5508.78125 131.328125 C 5437.269531 98.929688 5421.929688 137.539063 5418.011719 197.648438 C 5397.449219 182.898438 5382.160156 173.039063 5381.058594 172.328125 C 5378.421875 170.628906 5373.609375 173.398438 5376.691406 175.75 C 5391.320313 186.929688 5404.941406 197.578125 5417.46875 207.558594 C 5417.46875 207.710938 5417.460938 207.871094 5417.460938 208.019531 C 5404.058594 215.789063 5390.859375 223.871094 5377.910156 232.289063 C 5361.820313 224.308594 5347.359375 217.441406 5337.328125 211.621094 C 5329.449219 207.050781 5323.328125 211.621094 5329.449219 215.03125 C 5331.359375 216.109375 5347.738281 225.191406 5369.980469 237.5 C 5347.378906 252.5 5325.488281 268.46875 5304.390625 285.351563 C 5275.921875 279.21875 5254.28125 274.5 5248.980469 273.121094 C 5237.660156 270.171875 5235.929688 278.5 5244.609375 279.949219 C 5246.058594 280.191406 5267.050781 284.871094 5296.960938 291.410156 C 5097.589844 454.480469 4970.808594 699.359375 4970.808594 973.160156 C 4970.808594 1033.46875 4976.980469 1092.371094 4988.699219 1149.300781 C 4973.160156 1151.539063 4960.050781 1153.46875 4949.828125 1154.570313 C 4942.878906 1155.308594 4929.160156 1165.410156 4951.578125 1161.398438 C 4964.199219 1159.160156 4977 1157.109375 4989.941406 1155.238281 C 4993.671875 1172.789063 4997.941406 1190.160156 5002.730469 1207.328125 C 4989.410156 1208.898438 4979.660156 1210.339844 4974.089844 1211.191406 C 4964.210938 1212.691406 4951.730469 1223.339844 4976.609375 1217.789063 C 4984.648438 1216 4993.96875 1214.429688 5004.371094 1213.101563 C 5008.53125 1227.609375 5013.039063 1241.980469 5017.929688 1256.191406 C 5005.828125 1258.660156 4995.25 1261.261719 4986.460938 1263.851563 C 4975.390625 1267.109375 4971.550781 1274.03125 4989.691406 1270.148438 C 4999.179688 1268.109375 5009.578125 1266.128906 5020.738281 1264.25 C 5144.210938 1612.269531 5482.851563 1862.191406 5881.25 1862.191406 C 6384.058594 1862.191406 6791.710938 1464.160156 6791.710938 973.160156 C 6791.710938 734.238281 6695.160156 517.351563 6538.101563 357.601563 "/>
<path style=" stroke:none;fill-rule:evenodd;fill:rgb(13.699341%,12.199402%,12.5%);fill-opacity:1;" d="M 6473.839844 564 C 6454.949219 564 6439.710938 578.261719 6439.710938 599.660156 C 6439.710938 621.058594 6454.949219 635.441406 6473.839844 635.320313 L 6473.839844 635.441406 C 6492.238281 635.441406 6507.859375 621.058594 6507.859375 599.660156 C 6507.859375 578.261719 6492.238281 564 6473.839844 564 Z M 6473.839844 646.148438 C 6448.53125 646.148438 6425.988281 629.050781 6425.988281 599.660156 C 6425.988281 570.261719 6448.53125 553.171875 6473.839844 553.171875 C 6499.03125 553.171875 6521.578125 570.261719 6521.578125 599.660156 C 6521.578125 629.050781 6499.03125 646.148438 6473.839844 646.148438 Z M 6475.609375 595.121094 C 6480.539063 595.121094 6483.421875 594.128906 6483.421875 588.578125 C 6483.421875 583.421875 6477.75 583.058594 6473.601563 583.058594 L 6465.910156 583.058594 L 6465.910156 595.121094 Z M 6465.910156 624.621094 L 6454.949219 624.621094 L 6454.949219 574.558594 L 6474.101563 574.558594 C 6487.308594 574.558594 6495.128906 578.261719 6495.128906 589.699219 C 6495.128906 598.921875 6489.589844 602.238281 6482.789063 602.738281 L 6495.890625 624.621094 L 6482.921875 624.621094 L 6471.078125 603.589844 L 6465.910156 603.589844 L 6465.910156 624.621094 "/>
<path style=" stroke:none;fill-rule:evenodd;fill:rgb(13.699341%,12.199402%,12.5%);fill-opacity:1;" d="M 6475.609375 595.121094 L 6465.910156 595.121094 L 6465.910156 583.058594 L 6473.601563 583.058594 C 6477.75 583.058594 6483.421875 583.421875 6483.421875 588.578125 C 6483.421875 594.128906 6480.539063 595.121094 6475.609375 595.121094 Z M 6495.128906 589.699219 C 6495.128906 578.261719 6487.308594 574.558594 6474.101563 574.558594 L 6454.949219 574.558594 L 6454.949219 624.621094 L 6465.910156 624.621094 L 6465.910156 603.589844 L 6471.078125 603.589844 L 6482.921875 624.621094 L 6495.890625 624.621094 L 6482.789063 602.738281 C 6489.589844 602.238281 6495.128906 598.921875 6495.128906 589.699219 "/>
</g>
</svg>
