<svg width="255" height="40" viewBox="0 0 255 40" fill="none" xmlns="http://www.w3.org/2000/svg">
<g clip-path="url(#clip0_13113_9695)">
<path d="M19.28 29.02C16.67 30.2 13.71 30.8 10.67 30.8C2.78 30.8 0 26.96 0 19.33C0 11.7 3.76 9.29004 10.67 9.29004C13.51 9.29004 16.67 9.95004 19.05 10.7V17.24C17.5 16.9 14.66 16.44 12.34 16.44C9.33 16.44 8.3 17.56 8.3 21.14C8.3 24.1 8.96 25.44 10.85 25.44C11.22 25.44 11.74 25.38 12 25.33V20.22H19.29V29.03L19.28 29.02Z" fill="black"/>
<path d="M23.32 9.80005H31.21V30.28H23.32V9.80005Z" fill="black"/>
<path d="M48.59 27.1301H42.68L42.02 30.2901H34.13L39.87 9.81006H51.66L57.25 30.2901H49.25L48.59 27.1301ZM45.66 13.1901H45.6L43.74 21.9701H47.53L45.67 13.1901H45.66Z" fill="black"/>
<path d="M59.41 9.80005H68.36L72.95 21.13H73.01L72.49 9.80005H79.83V30.28H71.65L66.29 17.74H66.23L66.75 30.28H59.41V9.80005Z" fill="black"/>
<path d="M87.78 16.57H82.39V9.80005H101.06V16.57H95.67V30.28H87.78V16.57Z" fill="black"/>
<path d="M115.42 16.48H110.03V9.70996H128.7V16.48H123.31V30.19H115.42V16.48Z" fill="black"/>
<path d="M132.02 9.70996H139.91V30.19H132.02V9.70996Z" fill="black"/>
<path d="M163 28.93C160.39 30.11 157.43 30.7099 154.39 30.7099C146.5 30.7099 143.72 26.87 143.72 19.24C143.72 11.61 147.48 9.19995 154.39 9.19995C157.23 9.19995 160.39 9.85995 162.77 10.61V17.15C161.22 16.81 158.38 16.35 156.06 16.35C153.05 16.35 152.02 17.47 152.02 21.05C152.02 24.01 152.68 25.35 154.57 25.35C154.94 25.35 155.46 25.29 155.72 25.24V20.13H163.01V28.94L163 28.93Z" fill="black"/>
<path d="M166.27 9.70996H182.99V15.68H174.15V17.86H182.99V22.65H174.15V24.83H182.99V30.19H166.27V9.71996V9.70996Z" fill="black"/>
<path d="M186.5 9.70996H200.15C204.17 9.70996 207.52 10.57 207.52 15.62C207.52 19.49 205.68 21.41 201.73 21.5L208.3 30.19H199.18L194.47 23.02H194.38V30.19H186.49V9.70996H186.5ZM194.39 19.32H196.86C198.41 19.32 199.64 19.03 199.64 17.02C199.64 15.7 199.01 15.07 197.26 15.07H194.39V19.31V19.32Z" fill="black"/>
<path d="M254.46 19.9601C254.46 9.00012 245.58 0.120117 234.62 0.120117C223.66 0.120117 214.77 9.01012 214.77 19.9701C214.77 30.9301 223.66 39.8201 234.62 39.8201C245.58 39.8201 254.47 30.9301 254.47 19.9701L254.46 19.9601Z" fill="white"/>
<path d="M250.58 20.71C250.58 20.71 250.33 20.49 251.08 21.25C251.84 22.01 252.05 23.91 251.87 23.59C251.69 23.27 251.26 22.98 250.32 22.51C249.38 22.04 247.76 22.4 247.76 22.4C248.98 22.33 249.96 23.3 250.71 24.02C251.47 24.74 251.21 25.93 251.14 25.71C251.07 25.49 250.46 24.92 249.63 24.52C248.8 24.12 247.76 24.27 247.76 24.27L247.83 25.31C250.57 25.24 251.14 26.82 251.32 27.15C251.5 27.47 251.11 28.3 251.03 28.16C250.44 26.98 249.3 27.26 249.3 27.26C250.45 28.12 249.92 29.86 249.77 29.71C249.59 29.53 248.87 28.95 248.87 28.95C248.87 28.95 248.91 29.35 248.83 29.96C248.76 30.57 248.04 31 248.04 31L247.86 31.04C247.75 30 246.46 29.74 245.85 29.53C245.24 29.31 244.45 29.49 243.84 29.78C243.23 30.07 242.26 30.68 241.07 31.36C239.88 32.04 238.51 33.56 238.33 34.02C238.15 34.49 237.18 36.54 236.64 37.26C236.1 37.98 235.31 38.16 234.73 38.16C234.15 38.16 233.47 37.62 233.18 37.37C232.89 37.12 231.38 35.43 231.13 35.14C230.88 34.85 230.34 34.42 229.69 34.28C229.04 34.14 227.85 33.92 227.24 33.74C226.63 33.56 225.51 33.34 224.18 32.16C222.85 30.97 222.35 29.03 222.24 28.56C222.13 28.09 222.1 26.51 222.1 26.51C222.1 26.51 222.03 26.33 221.6 27.05C221.17 27.77 219.62 28.56 219.62 28.56C219.62 28.56 219.19 28.74 219.4 28.56C219.62 28.38 220.59 27.52 221.38 26.18C222.17 24.85 222.17 23.66 222.17 23.66C222.17 23.66 222.4 23.47 221.99 23.7C219.9 24.82 218.1 25.07 218.1 25.07C221.34 23.31 222.67 21.07 222.67 21.07C222.53 21.18 221.34 21.39 220.83 21.43C220.33 21.47 219.68 21.14 219.68 21.14L219.79 21.21C221.27 20.67 222.38 19.81 222.89 19.34C223.39 18.87 224.08 18.3 224.73 17.14C225.38 15.99 226.76 14.5 227.03 13.54C227.42 12.19 228.83 10.55 228.83 10.55C229.19 7.45001 228.26 5.01001 227.68 3.96001C227.13 2.96001 225.81 1.66001 225.81 1.66001C225.56 1.52001 225.7 1.26001 225.99 1.26001C227.61 1.26001 228.33 2.30001 228.94 2.84001C229.55 3.38001 230.16 4.57001 230.6 5.32001C231.03 6.08001 230.56 8.70001 230.56 8.70001C230.56 8.70001 230.16 9.17001 230.92 8.38001C231.67 7.59001 233.01 6.76001 233.62 6.22001C234.23 5.68001 235.63 5.32001 235.89 5.32001C236.15 5.32001 236.75 5.57001 237.37 5.90001C237.98 6.22001 237.98 8.20001 237.98 8.20001C239.89 5.03001 242.62 3.34001 243.09 3.02001C243.56 2.70001 244.28 2.62001 243.85 2.95001C243.42 3.27001 241.88 5.47001 241.33 6.66001C240.83 7.74001 240.07 10.33 240 10.84C239.93 11.34 240.14 11.74 240.72 11.85C241.3 11.96 241.73 11.63 241.73 11.63C241.77 13 240.9 13.68 240.9 13.68C242.09 13.82 242.84 11.92 242.84 11.92C243.09 13.07 242.77 13.76 242.77 13.76L243.38 13.51L243.56 13.58C243.56 13.58 243.95 13.9 244.15 14.07C244.15 14.07 246.38 15.87 247.52 16.21C247.52 16.21 246.65 16.69 245.58 16.77C245.58 16.77 247.06 17.98 248.52 18.4L246.3 19.78C246.3 19.78 248.15 18.93 250.58 20.72V20.71Z" fill="#FFD200"/>
<path d="M232.62 31.65C232.13 31.93 231.36 32.59 231.58 33.31C231.8 34.03 232.01 34.82 232.52 35.4C233.02 35.98 233.46 36.41 233.89 36.55C234.32 36.69 234.86 36.77 235.08 36.69C235.29 36.62 235.87 36.15 235.91 35.79C235.95 35.43 236.09 34.28 236.27 33.27C236.45 32.26 236.63 31.22 236.63 30.97C236.63 30.72 235.91 30.57 235.44 30.79C234.97 31.01 234.56 31.39 234.22 31.29C233.72 31.15 233.14 31.36 232.64 31.65H232.62Z" fill="#E31937"/>
<path d="M229.21 28.6301C228.96 28.7701 228.63 28.6301 228.6 28.8101C228.53 29.1501 228.62 29.3701 228.89 29.6401C229 29.7501 229.39 30.1801 229.83 30.4001C229.99 30.4801 230.3 30.5101 230.19 30.2201C230.08 29.9301 229.76 29.3901 229.79 29.0301C229.83 28.6701 229.72 28.3501 229.21 28.6301Z" fill="white"/>
<path d="M232.66 28.3799C232.35 28.5299 233.16 29.6799 233.52 29.8899C233.88 30.1099 234.2 30.1099 234.2 29.8199C234.2 29.5299 233.99 29.5299 233.91 29.2099C233.84 28.8899 233.84 28.7099 233.91 28.4499C233.98 28.1999 233.91 28.1299 233.62 28.1299C233.33 28.1299 232.86 28.2699 232.65 28.3799H232.66Z" fill="white"/>
<path d="M228.59 15.0299C228.05 15.1999 227.44 15.7499 226.75 17.1499C226.09 18.5099 225.99 19.3799 226.07 20.4599C226.14 21.5399 226.39 22.2199 227.15 22.2199C227.91 22.2199 228.24 22.1499 228.63 20.9999C229.06 19.6999 229.82 17.1899 229.75 16.1799C229.68 15.1699 229.39 14.7799 228.6 15.0299H228.59Z" fill="white"/>
<path d="M234.53 15.82C234.04 16.99 233.67 18.84 233.74 19.53C233.81 20.21 234.35 20.9 234.89 20.75C235.43 20.6 235.93 20.35 236.37 19.53C236.8 18.7 237.27 16.55 237.31 15.28C237.35 13.91 236.54 13.39 235.58 14.06C234.95 14.49 234.72 15.39 234.54 15.82H234.53Z" fill="white"/>
<path d="M225.24 1.28003C225.24 1.28003 222.65 6.37003 227.71 12.13L228.69 10.35C228.69 10.35 230.2 5.54003 225.24 1.28003Z" fill="white"/>
<path d="M244.95 2.5C244.95 2.5 239.49 6 240.33 12C240.33 12 241.37 11.96 241.48 11.49C241.48 11.49 242.24 12.22 240.9 13.7C240.9 13.7 242.29 13.73 242.84 11.94C242.84 11.94 243.21 13.08 242.77 13.78C242.77 13.78 244.88 11.61 245.37 9.2C245.37 9.2 246.73 4.8 244.94 2.51L244.95 2.5Z" fill="white"/>
<path d="M247.1 17.61C247.1 17.61 247.18 17.58 247.33 17.54C247.25 17.56 247.18 17.58 247.1 17.61Z" fill="black"/>
<path d="M247.1 17.61C247.1 17.61 247.18 17.58 247.33 17.54C247.25 17.56 247.18 17.58 247.1 17.61Z" fill="black"/>
<path d="M247.54 12.13H247.3V11H247.72C248.01 11 248.18 11.08 248.18 11.34C248.18 11.55 248.06 11.62 247.91 11.63L248.2 12.12H247.91L247.65 11.65H247.54V12.12V12.13ZM247.75 11.47C247.86 11.47 247.92 11.45 247.92 11.32C247.92 11.2 247.8 11.19 247.7 11.19H247.53V11.46H247.74L247.75 11.47ZM247.71 12.62C247.15 12.62 246.66 12.24 246.66 11.57C246.66 10.9 247.16 10.52 247.71 10.52C248.26 10.52 248.76 10.9 248.76 11.57C248.76 12.24 248.26 12.62 247.71 12.62ZM247.71 10.77C247.29 10.77 246.96 11.09 246.96 11.57C246.96 12.05 247.29 12.38 247.71 12.37C248.11 12.37 248.46 12.05 248.46 11.57C248.46 11.09 248.12 10.77 247.71 10.77Z" fill="black"/>
<path d="M249.12 6.14999L248.99 6.00999C248.53 5.53999 248.05 5.09999 247.56 4.67999C247.54 4.66999 247.53 4.64999 247.51 4.63999C247.35 4.50999 247.2 4.37999 247.04 4.25999C246.99 4.21999 246.95 4.18999 246.9 4.14999C246.49 3.82999 246.07 3.52999 245.63 3.24999C245.47 2.89999 245.29 2.65999 245.13 2.56999C244.81 2.38999 244.51 2.33999 244.17 2.37999C241.35 0.85999 238.12 -0.0100098 234.69 -0.0100098C232.07 -0.0100098 229.57 0.49999 227.27 1.40999C226.81 1.16999 226.51 1.04999 226.51 1.04999C224.94 0.31999 224.6 1.18999 224.52 2.53999C224.52 2.60999 224.51 2.70999 224.51 2.75999C224.22 2.93999 223.93 3.12999 223.64 3.31999C223.59 3.35999 223.53 3.39999 223.47 3.43999C223.36 3.50999 223.26 3.58999 223.15 3.65999C222.75 3.93999 222.29 4.28999 221.81 4.69999C217.46 8.36999 214.7 13.86 214.7 19.99C214.7 21.35 214.84 22.67 215.09 23.95C214.75 24 214.46 24.04 214.24 24.07C214.09 24.09 213.79 24.31 214.28 24.22C214.56 24.17 214.84 24.12 215.12 24.08C215.2 24.47 215.3 24.87 215.4 25.25C215.11 25.28 214.89 25.32 214.77 25.34C214.55 25.37 214.28 25.61 214.83 25.49C215.01 25.45 215.21 25.41 215.44 25.39C215.53 25.72 215.63 26.04 215.74 26.36C215.47 26.42 215.24 26.47 215.05 26.53C214.81 26.6 214.72 26.76 215.12 26.67C215.33 26.62 215.56 26.58 215.8 26.54C218.51 34.37 225.95 39.99 234.7 39.99C245.74 39.99 254.7 31.04 254.7 19.99C254.7 14.62 252.58 9.73999 249.13 6.13999L249.12 6.14999ZM244.95 2.77999C245.17 2.85999 245.47 3.70999 245.6 4.84999C245.6 4.84999 245.61 4.96999 245.63 5.16999C245.67 5.67999 245.68 6.23999 245.63 6.79999C245.63 6.87999 245.62 6.96999 245.61 7.05999C245.59 7.22999 245.57 7.38999 245.54 7.55999C245.49 7.84999 245.43 8.14999 245.34 8.44999C244.25 12.82 242.97 13.59 242.97 13.59C243.28 12.74 242.94 11.49 242.87 11.36C242.79 11.23 242.68 11.23 242.66 11.41C242.48 13.35 241.28 13.54 241.28 13.54C242.15 12.39 241.87 10.93 241.79 10.65C241.73 10.43 241.61 10.42 241.58 10.65C241.55 10.88 241.68 11.37 241.48 11.52C241.04 11.85 240.35 11.8 240.23 11.47C239.79 10.33 241.56 6.81999 241.74 6.41999C242.33 5.08999 244.42 2.59999 244.94 2.77999H244.95ZM248.07 22.66C248.26 22.66 248.44 22.71 248.59 22.76C249.3 22.98 251.12 23.97 251.1 25.42C251.1 25.42 250.07 24 248.1 24.22C248.11 24.03 248.12 23.85 248.12 23.65C248.12 23.3 248.1 22.97 248.06 22.65L248.07 22.66ZM248 22.3C247.92 21.83 247.81 21.42 247.65 21.04C248.79 20.98 249.85 21.02 250.77 21.15C251.81 22.29 251.8 23.37 251.8 23.37C251.8 23.37 250.52 21.59 248 22.29V22.3ZM249.74 29.49C249.74 29.49 249.38 28.99 248.61 28.66C248.61 28.66 249.19 30.22 248.07 30.84C248.07 30.84 247.49 29.32 245.5 29.37C246.49 28.42 247.43 27.13 247.86 25.55C248.46 25.53 249.52 25.59 250.22 26.15C251.24 26.97 251.36 27.53 251.14 27.97C251.14 27.97 250.57 26.74 248.89 27.1C248.89 27.1 250.33 28.28 249.74 29.5V29.49ZM247.57 20.87C247.36 20.42 247.1 20.03 246.8 19.7C248.01 19.66 249.23 19.85 250.1 20.54C250.28 20.68 250.45 20.83 250.59 20.97C249.71 20.86 248.69 20.82 247.57 20.87ZM246.94 23.01C247.21 26.81 244.6 28.89 244.6 28.89C245.18 28.08 245.98 26.2 245.91 24.09C245.85 22.55 245.19 21.78 244.65 21.41C245.29 21.29 245.93 21.2 246.55 21.14C246.76 21.69 246.9 22.31 246.95 23.02L246.94 23.01ZM244.06 24.97C243.87 23.74 243.1 23.13 242.95 22.97C242.8 22.82 242.67 22.84 242.8 23.09C243.57 24.59 243.3 26.08 243.03 27.59C242.86 28.55 242.35 29.96 242.12 30.6C242.03 30.66 241.93 30.71 241.83 30.78C242.5 28.44 242.09 26.71 241.68 26.12C241.47 25.82 241.5 25.95 241.53 26.13C241.93 28.25 241 30.68 240.56 31.67C240.17 31.96 239.76 32.29 239.33 32.67C239.08 32.88 238.75 33.3 238.55 33.58C238.88 32.11 239.42 31.81 239.8 31.37C240.07 31.06 239.95 31.06 239.84 31.14C238.35 32.21 238.53 33.07 237.63 35.29C237.39 35.82 237.21 36.31 236.95 36.72C236.23 37.86 235.52 38.04 234.93 38.03C234.03 38.01 233.43 37.48 232.68 36.57C231.54 35.2 231.19 34.83 230.61 34.47C230.02 34.11 229.25 33.62 228.46 32.7C227.67 31.78 227.2 30.88 226.84 28.73C226.76 28.27 226.48 28.4 226.51 28.78C226.54 29.16 226.18 31.42 228.48 33.98C228.48 33.98 225.74 32.94 224.45 27.48C225.13 27.55 225.82 27.66 226.49 27.8C227.02 28.43 228.03 28.99 228.48 28.83C228.48 28.83 228.64 30.1 229.83 30.56C230.33 30.75 230.56 30.91 230.75 31.64C230.94 32.37 232 36.47 234.36 36.87C235.51 37.06 235.84 36.57 235.97 36.18C236.35 35.07 236.39 32.49 237.12 30.45C237.83 28.48 239.38 25.65 241.68 24.84C241.73 24.97 241.75 25.12 241.74 25.28C241.7 25.74 242.15 25.63 242.2 25.23C242.3 24.47 241.28 23.9 241.07 23.85C240.86 23.8 240.9 23.96 241.07 24.11C241.13 24.16 241.39 24.34 241.57 24.63C239.87 25.07 237.7 25.86 235.79 25.33C238.08 23.41 241.1 22.19 244.03 21.56C244.61 22.3 244.92 22.92 244.96 24.58C245 26.69 243.73 28.96 243.73 28.96C243.96 28.35 244.27 26.23 244.08 25L244.06 24.97ZM220.73 27.39C220.97 27.09 221.23 26.73 221.47 26.33C221.58 26.33 221.68 26.35 221.79 26.36C221.79 26.39 221.77 26.41 221.77 26.44C221.68 26.75 221.5 27.04 221.28 27.29C221.09 27.32 220.91 27.35 220.73 27.39ZM221.04 27.54C220.5 28.06 219.86 28.4 219.73 28.47C219.73 28.47 220.07 28.17 220.51 27.65C220.68 27.61 220.86 27.57 221.04 27.54ZM221.84 27.07C221.84 27.07 221.84 27.12 221.83 27.21C221.79 27.21 221.75 27.21 221.71 27.22C221.75 27.17 221.8 27.12 221.84 27.07ZM221.58 26.13C221.68 25.96 221.77 25.79 221.85 25.61C221.91 25.61 221.97 25.63 222.03 25.64C221.97 25.82 221.91 25.99 221.85 26.16C221.76 26.16 221.67 26.14 221.58 26.13ZM221.73 24.1C221.84 24.12 221.94 24.14 222.05 24.16C222.02 24.41 221.93 24.81 221.72 25.33C220.8 25.2 219.94 25.14 219.14 25.12C219.97 24.92 220.93 24.6 221.73 24.1ZM218.67 24.95C218.67 24.95 219.35 24.57 220.21 23.91C220.57 23.94 220.93 23.98 221.29 24.03C220.6 24.41 219.66 24.82 218.67 24.95ZM222.02 23.9C222.02 23.9 222.05 23.88 222.07 23.87V23.91C222.07 23.91 222.04 23.91 222.02 23.91V23.9ZM221.95 25.36C222.1 24.99 222.23 24.61 222.31 24.21C222.41 24.23 222.51 24.25 222.61 24.27C222.42 24.63 222.26 25.01 222.11 25.38C222.06 25.38 222 25.36 221.95 25.36ZM224.21 26.52C224.21 26.52 224.2 26.44 224.19 26.4C224.19 26.4 223.86 25.93 223.88 26.32C223.88 26.36 223.88 26.41 223.88 26.45C223.39 26.35 222.9 26.28 222.43 26.22C222.43 26.05 222.44 25.87 222.46 25.7C223.6 25.89 224.74 26.15 225.79 26.5C225.84 26.65 225.9 26.81 225.97 26.96C225.37 26.78 224.79 26.64 224.21 26.52ZM226.08 27.2C226.13 27.3 226.19 27.4 226.25 27.5C226.25 27.5 226.25 27.51 226.26 27.52C225.61 27.39 224.98 27.29 224.35 27.23C224.31 27.06 224.28 26.89 224.24 26.72C224.85 26.85 225.46 27.01 226.08 27.2ZM225.59 25.29C225.59 25.59 225.63 25.91 225.72 26.26C224.62 25.88 223.53 25.62 222.49 25.44C222.5 25.36 222.51 25.28 222.52 25.2C222.56 24.9 222.66 24.6 222.78 24.31C223.75 24.54 224.7 24.86 225.59 25.29ZM222.88 24.09C223.65 22.57 225.34 21.57 226.09 23.47C226.09 23.47 225.66 24.08 225.6 25.06C224.69 24.62 223.78 24.31 222.88 24.09ZM223.88 26.65C223.88 26.82 223.88 27 223.89 27.2C223.4 27.17 222.92 27.15 222.45 27.17C222.43 26.93 222.41 26.68 222.41 26.42C222.89 26.48 223.38 26.56 223.87 26.65H223.88ZM223.9 27.42C223.96 28.93 224.2 31.02 225.99 33.22C225.99 33.22 224.3 32.34 223.35 30.27C222.95 29.4 222.61 28.45 222.47 27.38C222.94 27.36 223.42 27.38 223.89 27.41L223.9 27.42ZM229.66 29.51C230.15 30.3 229.93 30.32 229.93 30.32C229.01 30.01 228.39 28.78 228.85 28.82C229.31 28.86 229.58 28.47 229.62 28.74C229.66 29.01 229.35 29.01 229.66 29.51ZM233.93 29.55C234.08 29.7 234.03 29.94 233.85 29.86C233.13 29.53 232.68 28.53 232.81 28.48C233.42 28.25 233.92 28.14 233.69 28.75C233.61 28.97 233.77 29.4 233.92 29.56L233.93 29.55ZM233.05 31.7C233.7 31.28 234.36 31.51 234.01 31.89C233.66 32.27 233.4 32.87 233.32 33.24C233.26 33.5 233.39 33.49 233.51 33.22C234.49 31.04 236.51 30.34 236.43 31.28C236.37 32.02 236.01 33.51 235.93 34.32C235.85 35.13 235.8 35.97 235.49 36.32C235.18 36.67 234.67 36.67 234.13 36.51C232.74 36.11 231.85 34.18 231.79 33.36C231.72 32.48 232.6 32.01 233.06 31.71L233.05 31.7ZM244.35 21.24C244.26 21.19 244.18 21.16 244.12 21.13C243.74 20.97 243.75 21.16 243.86 21.33C240.93 21.93 237.86 23.14 235.48 25.2C235.4 25.17 235.32 25.14 235.23 25.1C238.59 21.96 242.56 20.51 245.83 19.85C246.07 20.17 246.29 20.53 246.46 20.93C245.78 20.99 245.07 21.09 244.36 21.22L244.35 21.24ZM244.59 18.75C244.98 18.99 245.33 19.29 245.65 19.65C245.15 19.74 244.71 19.85 244.31 19.97C241.3 20.75 237.9 22.23 235.01 25.01C234.93 24.97 234.85 24.93 234.77 24.88C237.2 22.4 240.99 20.2 244.6 18.75H244.59ZM234.54 24.74C234.36 24.62 234.19 24.48 234.02 24.33C235.47 22.42 237.79 19.97 240.39 18.15C240.66 18.09 240.88 18.06 241.16 18.03C242.21 17.92 243.37 18.09 244.32 18.59C240.79 19.98 237.07 22.11 234.54 24.74ZM245.8 18.86C245.6 18.73 245.4 18.62 245.19 18.52C245.6 18.36 246 18.22 246.4 18.08L246.77 17.96C247.07 17.86 247.36 17.78 247.65 17.69C247.65 17.69 248.05 17.57 248.63 17.43C248.87 17.37 249.1 17.32 249.33 17.27C250.18 17.09 251.2 16.92 251.96 16.95C251.97 16.95 251.98 16.95 251.99 16.95C252.31 16.95 252.61 16.97 252.87 17.01C253.52 17.12 253.07 16.88 252.87 16.85C252.6 16.8 252.29 16.78 251.95 16.78C250.27 16.8 248.29 17.3 247.47 17.53C247.44 17.53 247.42 17.54 247.39 17.55C247.36 17.55 247.33 17.57 247.3 17.58C247.15 17.62 247.07 17.65 247.07 17.65C246.9 17.7 246.73 17.75 246.55 17.81L246.14 17.94C245.72 18.08 245.3 18.23 244.87 18.39C242.97 17.74 242.16 17.64 240.96 17.77C241.51 17.41 242.07 17.09 242.63 16.8C244.5 15.86 242.73 16.63 242.53 16.72C241.91 17.02 241.27 17.38 240.61 17.79C238.09 18.1 236.88 19.3 236.88 19.3C237.03 18.96 237.26 18.45 237.42 16.88C237.57 15.3 237.61 13.81 236.42 13.69C235 13.55 234.23 16.11 233.81 17.49C233.39 18.87 233.2 20.76 233.27 23.29C233.27 23.29 234.61 21.63 235.69 20.6C236.48 19.85 237.96 18.78 239.88 18.27C237.81 19.69 235.68 21.66 233.85 24.18C233.64 24.03 233.15 24.08 233.61 24.52C233.29 24.97 232.99 25.43 232.7 25.91C232.59 26.09 232.74 26.27 232.91 25.97C233.13 25.59 233.42 25.15 233.78 24.66C233.95 24.8 234.12 24.91 234.29 25.02C233.86 25.49 233.46 25.98 233.12 26.48C232.98 26.69 233.14 26.91 233.36 26.59C233.68 26.11 234.07 25.63 234.51 25.16C234.59 25.21 234.66 25.25 234.73 25.3C234.38 25.65 234.03 26.01 233.71 26.38C233.56 26.54 233.66 26.76 233.89 26.51C234.19 26.17 234.54 25.81 234.92 25.44C234.98 25.49 235.03 25.54 235.08 25.6C234.63 26.03 234.2 26.49 233.81 26.98C233.66 27.18 233.8 27.42 234.04 27.11C234.39 26.66 234.77 26.24 235.18 25.85C235.18 25.87 235.18 25.88 235.18 25.9C235.18 26.75 234.72 27.81 233.18 28.17C231.37 28.59 230.7 27.09 230.38 26.22C230.24 25.85 230.15 25.91 230.26 26.24C230.26 26.24 230.68 27.47 229.88 28.24C229.63 28.48 228 29.22 226.96 27.89C227.28 27.96 227.6 28.05 227.92 28.13C228.25 28.22 228.21 27.98 228 27.93C227.59 27.82 227.18 27.72 226.78 27.63C226.72 27.54 226.66 27.45 226.61 27.37C226.84 27.45 227.07 27.53 227.3 27.62C227.62 27.75 227.62 27.51 227.42 27.44C227.1 27.32 226.77 27.21 226.45 27.11C226.36 26.95 226.27 26.8 226.2 26.64C226.95 26.91 227.65 27.22 228.27 27.58C228.57 27.75 228.6 27.51 228.4 27.41C227.64 27.01 226.86 26.67 226.09 26.39C225.97 26.09 225.9 25.77 225.89 25.43C226.73 25.86 227.53 26.38 228.27 27.02C228.53 27.25 228.59 27.01 228.42 26.87C227.6 26.19 226.75 25.64 225.89 25.21C225.92 24.71 226.09 24.16 226.47 23.53C227.34 22.1 229.98 22.36 230.68 24.32C230.68 24.32 231.12 22.65 232.74 21.46C232.74 21.46 231.74 20.78 228.66 21.99C228.83 21.51 231.01 15.44 229.3 14.93C228.03 14.56 226.61 16.72 226.38 17.64C226.38 17.64 226.34 15.72 227.13 14.57C227.92 13.42 229.11 12.73 230.15 12.9C231.19 13.07 231.37 14.99 230.67 18.2C230.48 19.08 230.27 20.22 230.27 20.22C230.27 20.22 230.22 20.33 230.58 20.52C230.82 20.65 230.94 20.57 231.01 20.26C231.09 19.95 231.75 17.17 233.19 15.01C234.55 12.96 235.7 11.53 237.14 11.6C237.68 11.63 238.37 12.09 238.57 14.9C238.6 15.26 238.78 15.49 238.88 14.95C238.98 14.41 239.21 12.54 237.98 11.57C236.75 10.6 234.29 11.36 231.63 16.31C231.63 16.31 232.42 9.67999 227.35 13.57C227.35 13.57 227.63 12.74 228.48 11.52C229.15 11.08 230.18 10.54 230.93 10.83C231.85 11.19 231.89 11.77 231.89 13.47C231.89 13.93 232.22 13.7 232.43 13.39C232.64 13.08 234.75 9.86999 236.34 10.52C236.69 10.66 236.73 10.52 236.43 10.37C235.27 9.77999 233.44 10.85 232.31 12.84C232.31 12.84 232.41 11.14 231.43 10.61C230.58 10.16 229.73 10.45 229.05 10.77C229.34 10.4 229.68 10.02 230.07 9.61999C230.59 9.37999 231.47 9.09999 232.13 9.46999C232.59 9.72999 232.8 10.11 232.64 10.88C232.59 11.14 232.9 11.19 233.05 10.98C233.2 10.77 233.94 9.40999 235.4 9.09999C235.88 8.99999 236.33 9.24999 236.48 9.44999C236.71 9.73999 236.77 9.62999 236.61 9.33999C236.05 8.31999 234 8.81999 233.02 10.26C233.02 10.26 232.88 9.29999 231.98 9.06999C231.71 8.99999 231.18 8.92999 230.51 9.16999C230.78 8.90999 231.08 8.63999 231.4 8.36999C231.52 8.26999 231.63 8.17999 231.74 8.08999C231.99 8.01999 232.35 7.98999 232.54 8.15999C232.89 8.46999 232.91 8.85999 232.94 9.23999C232.94 9.35999 233.17 9.40999 233.25 9.19999C233.33 8.98999 233.78 8.31999 234.45 7.99999C235.18 7.64999 235.66 7.54999 236.38 7.96999C236.56 8.06999 236.75 8.11999 236.59 7.90999C236.15 7.32999 235.19 7.31999 234.53 7.59999C233.99 7.82999 233.55 8.15999 233.17 8.63999C233.17 8.63999 233.05 7.95999 232.55 7.81999C232.3 7.74999 232.2 7.76999 232.09 7.77999C234.4 5.86999 235.15 5.46999 236.21 5.66999C237.18 5.84999 237.65 6.71999 237.72 7.63999C237.77 8.30999 237.61 8.83999 237.38 9.21999C237.17 9.55999 237.24 9.53999 237.24 9.53999C237.33 9.61999 238.94 7.83999 240.33 7.90999C240.58 7.91999 240.72 7.86999 240.61 8.17999C240.5 8.48999 240.11 9.48999 239.92 10.51C239.74 11.47 240.07 11.82 240.35 12.05C240.73 12.36 241.55 11.92 241.55 11.92C241.6 13.35 240.47 13.84 240.47 13.84C242.21 14.22 242.78 12.51 242.78 12.51C242.99 13.25 242.4 14.23 242.19 14.41C241.98 14.59 242.21 14.64 242.34 14.51C242.47 14.38 243.14 13.82 243.37 13.9C243.6 13.98 243.27 14.54 243.22 14.62C243.17 14.7 243.3 14.8 243.35 14.67C243.45 14.41 243.54 14.24 243.62 14.13C243.62 14.13 243.65 14.05 243.66 14.03L243.79 13.76C243.82 13.69 243.84 13.65 243.84 13.65C243.88 13.42 244.75 12.88 245.84 8.90999C245.9 8.68999 245.95 8.46999 245.99 8.24999C246.13 7.54999 246.17 6.82999 246.18 6.52999C246.19 5.92999 246.15 5.36999 246.08 4.86999C246.07 4.78999 246.06 4.71999 246.04 4.65999C246.02 4.53999 245.99 4.41999 245.97 4.29999C246.03 4.33999 246.09 4.38999 246.15 4.42999C246.33 4.53999 246.53 4.70999 246.53 4.70999C247 5.06999 247.45 5.45999 247.88 5.85999C248.09 6.04999 248.35 6.30999 248.55 6.51999C248.6 6.56999 248.65 6.61999 248.7 6.67999C248.8 6.77999 248.86 6.84999 248.86 6.84999C252.08 10.31 254.05 14.94 254.05 20.04C254.05 30.73 245.39 39.39 234.7 39.39C226.28 39.39 219.11 34.01 216.45 26.49C217.75 26.31 219.4 26.22 221.21 26.34C220.98 26.7 220.7 27.1 220.35 27.52C219.54 27.74 218.78 28.08 218.08 28.57C217.96 28.66 217.47 29.18 218.18 28.7C218.77 28.3 219.42 28 220.11 27.8C219.79 28.15 219.43 28.51 219 28.89C219 28.89 220.08 29.04 221.5 27.52C221.61 27.51 221.71 27.49 221.82 27.48C221.81 28.29 221.96 30.32 223.63 32.06C225.78 34.29 229.94 34.63 230.34 34.78C230.62 34.88 231.23 35.53 231.47 35.75C231.92 36.18 232.53 37.19 233.27 37.76C234.06 38.37 234.39 38.51 235.03 38.46C235.67 38.41 236.56 38.05 237.21 37.03C237.77 36.13 237.72 35.75 238.29 34.67C238.85 33.59 239.17 33.13 240.36 32.24C241.67 31.27 244.15 29.47 245.87 29.81C247.06 30.04 247.59 30.6 247.89 31.5C247.89 31.5 249.48 30.47 249.02 29.29C249.02 29.29 249.43 29.58 249.87 30.16C249.87 30.16 250.8 28.65 249.63 27.44C249.63 27.44 250.74 27.37 251.09 28.62C251.09 28.62 251.93 27.83 251.35 26.9C250.56 25.64 249.81 25.36 247.96 25.21C247.96 25.21 248.06 24.96 248.06 24.55C248.06 24.54 248.06 24.53 248.06 24.52C248.12 24.52 250.47 24.49 251.26 26.36C251.26 26.36 252.29 23.86 248.8 22.53C248.8 22.53 250.72 22.18 252 24.18C252 24.18 252.38 22.75 251.21 21.26C251.46 21.31 251.69 21.36 251.91 21.42C252.55 21.59 252.13 21.32 251.93 21.26C251.67 21.19 251.37 21.12 251.05 21.07C250.83 20.82 250.57 20.57 250.26 20.33C249.95 20.11 249.55 19.88 249.06 19.73C248.94 19.7 248.82 19.66 248.7 19.64C248.46 19.59 248.19 19.56 247.92 19.55C247.92 19.55 248.24 19.52 248.71 19.48C249 19.46 249.27 19.44 249.53 19.42C250.3 19.38 251.21 19.36 251.88 19.42C252.14 19.44 252.26 19.45 252.21 19.45C252.73 19.45 252.5 19.25 252.16 19.23C252.23 19.23 252.02 19.21 251.6 19.19C251.24 19.18 250.25 19.16 249.05 19.23C248.94 19.23 248.83 19.25 248.71 19.25C248.42 19.27 248.11 19.3 247.8 19.33C247.41 19.38 247 19.44 246.58 19.5C246.44 19.36 246.29 19.23 246.13 19.11M235.01 19.06C234.73 18.73 234.27 18.93 234.16 19.03C234.06 19.13 233.99 18.98 234.01 18.88C234.52 15.55 235.42 13.76 236.52 13.96C237.62 14.17 236.87 17.23 236.62 18.42C236.44 19.29 235.98 20.01 235.62 20.39C235.53 20.48 235.39 20.39 235.34 20.24C235.29 20.09 235.16 20.03 235.06 20.21C234.96 20.39 234.57 20.29 234.57 20.29C235.08 19.75 235.29 19.39 235.01 19.06ZM227.58 21.52C227.43 21.62 227.27 21.6 227.14 21.55C227.14 21.55 227.94 20.66 227.5 20.27C227.02 19.85 226.6 20.12 226.45 20.35C226.4 20.43 226.22 20.32 226.22 20.2C226.22 18.4 227.63 14.92 229.11 15.18C230.6 15.44 228.32 21.08 227.93 21.89C227.88 22 227.76 21.96 227.8 21.71C227.82 21.56 227.72 21.43 227.57 21.53L227.58 21.52ZM229.92 5.99999C230.23 6.29999 230.53 7.05999 230.54 7.64999C230.54 7.84999 230.05 7.20999 229.74 6.98999C229.44 6.77999 229.11 6.63999 228.91 6.33999C228.76 6.11999 228.53 5.29999 228.53 5.29999C228.53 5.29999 229.32 5.40999 229.93 5.99999H229.92ZM228.27 4.62999C228.12 4.35999 227.73 3.58999 227.6 3.35999C227.47 3.12999 227.66 3.00999 228.02 3.14999C228.39 3.27999 228.96 3.39999 229.69 4.25999C230.42 5.11999 230.25 5.34999 229.98 5.17999C229.71 5.00999 228.27 4.61999 228.27 4.61999V4.62999ZM229.17 7.23999C229.47 7.43999 230.42 8.52999 230.13 8.92999C229.68 9.55999 229 10.26 229.03 9.94999C229.3 7.67999 228.67 6.91999 229.16 7.23999H229.17ZM241.87 4.83999C242.3 4.79999 241.96 5.19999 241.89 5.34999C241.78 5.60999 241.72 5.76999 241.51 5.80999C241.07 5.89999 240.7 5.88999 240.5 5.93999C240.27 5.98999 239.72 6.07999 240.04 5.75999C240.67 5.12999 241.27 4.88999 241.86 4.83999H241.87ZM242.3 3.86999C242.53 3.73999 242.58 3.71999 242.86 3.58999C243.56 3.26999 242.89 4.02999 242.71 4.19999C242.53 4.37999 242.28 4.32999 242.07 4.32999C241.53 4.32999 242.14 3.95999 242.3 3.86999ZM240.57 6.39999C241.38 6.09999 241.29 6.39999 241.18 6.62999C241.06 6.86999 240.77 7.47999 240.77 7.47999C240.77 7.47999 240.55 7.47999 240.41 7.47999C239.67 7.45999 239.01 7.72999 238.75 7.84999C238.52 7.94999 238.43 7.94999 238.53 7.84999C239.41 6.95999 239.71 6.71999 240.57 6.40999V6.39999ZM234.66 0.65999C237.77 0.65999 240.7 1.38999 243.3 2.68999C242.8 2.94999 242.23 3.36999 241.49 3.91999C239.67 5.27999 238.43 7.30999 238.28 7.46999C238.18 7.56999 238.12 7.55999 238.1 7.48999C238.09 7.31999 238.07 7.15999 238.03 7.01999C237.61 3.97999 235.55 3.33999 235.38 3.26999C235.2 3.18999 234.97 3.26999 235.23 3.39999C236.54 4.05999 237.02 5.11999 237.13 5.36999C237.21 5.55999 237.13 5.65999 237.01 5.67999C236.85 5.59999 236.71 5.54999 236.62 5.50999C236.55 5.47999 236.49 5.45999 236.42 5.43999C236.42 5.42999 236.42 5.41999 236.41 5.39999C235.21 3.71999 233.68 4.08999 233.52 4.11999C233.41 4.13999 233.26 4.19999 233.47 4.21999C233.75 4.24999 234.41 4.27999 235.13 4.68999C235.85 5.09999 235.65 5.33999 235.65 5.33999C235.36 5.35999 235.05 5.42999 234.74 5.54999C233.17 5.06999 232.26 5.68999 232.14 5.73999C232.01 5.78999 232.06 5.85999 232.22 5.79999C232.54 5.67999 232.87 5.65999 233.33 5.64999C233.63 5.63999 234.01 5.70999 234.09 5.84999C233.79 6.00999 233.49 6.18999 233.19 6.39999C232.39 6.50999 232 6.77999 231.66 6.97999C231.56 7.03999 231.56 7.09999 231.74 7.02999C231.99 6.93999 232.37 6.81999 232.55 6.85999C232.14 7.16999 231.7 7.52999 231.28 7.89999C231.19 7.97999 231.08 8.06999 230.97 8.15999C231.56 4.84999 229.49 2.84999 227.97 1.84999C230.06 1.07999 232.32 0.65999 234.67 0.65999H234.66ZM226.46 1.83999C227.16 1.40999 228.61 2.69999 228.71 2.85999C228.71 2.85999 227.66 2.55999 226.92 2.50999C226.73 2.49999 226.21 1.98999 226.46 1.83999ZM215.31 20.01C215.31 14 218.05 8.63999 222.34 5.08999C222.38 5.05999 222.41 5.02999 222.45 4.99999C222.51 4.94999 222.57 4.89999 222.63 4.84999C222.69 4.79999 222.75 4.75999 222.81 4.70999C223.22 4.38999 223.64 4.09999 224.07 3.80999C224.14 3.75999 224.21 3.71999 224.27 3.67999C224.33 3.63999 224.4 3.59999 224.46 3.55999C224.46 5.68999 224.78 7.25999 225.05 8.17999C225.09 8.31999 225.13 8.44999 225.17 8.56999C225.19 8.64999 225.22 8.71999 225.24 8.77999C226.06 11.08 227.23 11.89 227.23 11.89C227.23 11.89 226.31 10.77 225.59 8.85999C225.27 8.05999 225.07 7.25999 224.94 6.50999C224.93 6.44999 224.92 6.38999 224.91 6.33999C224.91 6.33999 224.91 6.32999 224.91 6.31999C224.86 5.98999 224.81 5.64999 224.79 5.28999C224.79 5.22999 224.79 5.17999 224.78 5.11999C224.78 5.03999 224.78 4.95999 224.77 4.88999C224.77 4.82999 224.77 4.76999 224.77 4.70999C224.77 4.68999 224.77 4.66999 224.77 4.64999C224.73 3.49999 224.84 2.72999 224.85 2.68999C224.91 2.20999 225.06 1.79999 225.46 1.93999C226.09 2.15999 227.34 3.26999 228.17 5.62999C228.93 7.80999 228.74 9.97999 228.7 10.37C227.44 11.9 226.25 14.11 226.08 17.31C226.08 17.31 225.63 20.64 226.05 22.89C225.73 22.43 225.51 22.2 224.82 22.22C224.07 22.25 223.3 23 222.73 24.03C222.61 24 222.48 23.97 222.36 23.95C222.39 23.74 222.41 23.52 222.42 23.3C222.42 23.3 222.12 23.53 221.63 23.82C221.24 23.76 220.86 23.71 220.48 23.68C221.36 22.97 222.37 22.01 223.03 20.88C223.03 20.88 221.26 21.67 220.21 21.23C220.21 21.23 223.6 20.38 225.71 15.81C225.77 15.67 225.69 15.55 225.53 15.76C224.82 16.68 223.29 20.29 219.43 21.19C219.43 21.19 220.33 22 222.52 21.27C222.52 21.27 221.86 22.37 220.16 23.66C218.43 23.55 216.88 23.71 215.74 23.86C215.49 22.61 215.35 21.31 215.35 19.99L215.31 20.01ZM215.73 24.02C217.06 23.86 218.45 23.8 219.84 23.89C219.29 24.29 218.63 24.71 217.87 25.11C217.15 25.12 216.52 25.16 216.02 25.21C215.91 24.82 215.81 24.42 215.73 24.02ZM216.06 25.34C216.5 25.31 216.99 25.29 217.52 25.29C217.42 25.34 217.32 25.39 217.22 25.44C217.22 25.44 217.63 25.41 218.23 25.3C219.26 25.33 220.41 25.41 221.57 25.58C221.49 25.75 221.4 25.93 221.29 26.12C219.3 25.96 217.58 26.07 216.34 26.27C216.24 25.97 216.14 25.66 216.05 25.35L216.06 25.34Z" fill="black"/>
<path d="M244.18 14.2101C244.18 14.2101 243.95 13.9901 244.17 14.0001C244.17 14.0001 246.65 16.0701 248.1 16.0701C248.1 16.0701 247.2 16.8501 245.94 16.8401C245.94 16.8401 247.25 18.2001 248.97 18.1901C248.97 18.1901 248.01 19.3301 245.78 19.9001L248.29 18.4301C248.29 18.4301 246.78 18.3001 245.21 16.6701C245.21 16.6701 246.81 16.5501 247.33 16.2701C247.33 16.2701 245.34 15.5301 244.2 14.2201L244.18 14.2101Z" fill="black"/>
</g>
<defs>
<clipPath id="clip0_13113_9695">
<rect width="254.69" height="40" fill="white"/>
</clipPath>
</defs>
</svg>
