<svg width="66" height="78" viewBox="0 0 66 78" fill="none" xmlns="http://www.w3.org/2000/svg">
	<path d="M50.1665 34.8889V30.7778C50.1665 28.9606 49.4378 27.2178 48.1407 25.9328C46.8435 24.6478 45.0843 23.9259 43.2498 23.9259C41.4154 23.9259 39.6561 24.6478 38.359 25.9328C37.0618 27.2178 36.3331 28.9606 36.3331 30.7778V8.85185C36.3331 7.03463 35.6044 5.29183 34.3072 4.00686C33.0101 2.72189 31.2508 2 29.4164 2C27.5819 2 25.8226 2.72189 24.5255 4.00686C23.2284 5.29183 22.4996 7.03463 22.4996 8.85185V50.4083L14.9258 37.3898C14.0086 35.8134 12.4968 34.6624 10.723 34.1902C8.94913 33.718 7.05858 33.9631 5.46721 34.8718C3.87585 35.7804 2.71402 37.278 2.23732 39.0352C1.76062 40.7924 2.0081 42.6652 2.92532 44.2417C14.1996 67.7778 21.0471 76 36.3331 76C39.9664 76 43.5641 75.2911 46.9208 73.9137C50.2775 72.5364 53.3274 70.5176 55.8966 67.9726C58.4657 65.4275 60.5036 62.4062 61.894 59.081C63.2844 55.7557 64 52.1918 64 48.5926V34.8889C64 33.0717 63.2713 31.3289 61.9741 30.0439C60.677 28.7589 58.9177 28.037 57.0833 28.037C55.2488 28.037 53.4895 28.7589 52.1924 30.0439C50.8953 31.3289 50.1665 33.0717 50.1665 34.8889Z" stroke="black" stroke-width="4" stroke-linecap="round" stroke-linejoin="round" />
	<!-- <path d="M1 19V13.6857C1 9.34903 3.24768 5.32226 6.93889 3.04602V3.04602C10.9613 0.565533 16.0387 0.565533 20.0611 3.04602V3.04602C23.7523 5.32226 26 9.34903 26 13.6856V19" stroke="black" /> -->
</svg>
